<?xml version="1.0" encoding="UTF-8" standalone="no"?>
<!DOCTYPE svg PUBLIC "-//W3C//DTD SVG 1.1//EN" "http://www.w3.org/Graphics/SVG/1.1/DTD/svg11.dtd">
<svg width="100%" height="100%" viewBox="0 0 566 566" version="1.1" xmlns="http://www.w3.org/2000/svg" xmlns:xlink="http://www.w3.org/1999/xlink" xml:space="preserve" xmlns:serif="http://www.serif.com/" style="fill-rule:evenodd;clip-rule:evenodd;stroke-linejoin:round;stroke-miterlimit:2;">
    <g>
        <clipPath id="_clip1">
            <rect x="-0" y="-0" width="566.796" height="568.5"/>
        </clipPath>
        <g clip-path="url(#_clip1)">
            <g id="hair-spring" serif:id="hair spring">
                <path d="M566.561,246.651C389.192,246.651 245.187,390.654 245.187,568.026C245.187,745.398 389.192,889.401 566.561,889.401C743.934,889.401 887.938,745.398 887.938,568.026C887.938,390.654 743.934,246.651 566.561,246.651ZM566.561,276.593C405.717,276.593 275.128,407.179 275.128,568.026C275.128,728.873 405.717,859.459 566.561,859.459C727.408,859.459 857.996,728.873 857.996,568.026C857.996,407.179 727.408,276.593 566.561,276.593Z" style="fill:rgb(30,55,96);"/>
                <path d="M566.561,306.535C422.242,306.535 305.072,423.705 305.072,568.026C305.072,712.347 422.242,829.518 566.561,829.518C710.882,829.518 828.053,712.347 828.053,568.026C828.053,423.705 710.882,306.535 566.561,306.535ZM566.561,336.476C438.768,336.476 335.014,440.23 335.014,568.026C335.014,695.822 438.768,799.576 566.561,799.576C694.357,799.576 798.112,695.822 798.112,568.026C798.112,440.23 694.357,336.476 566.561,336.476Z" style="fill:rgb(30,55,96);"/>
                <path d="M566.561,366.418C455.293,366.418 364.955,456.756 364.955,568.026C364.955,679.297 455.293,769.635 566.561,769.635C677.832,769.635 768.17,679.296 768.17,568.026C768.17,456.756 677.832,366.417 566.561,366.417L566.561,366.418ZM566.561,396.362C471.816,396.362 394.896,473.281 394.896,568.027C394.896,662.772 471.816,739.694 566.561,739.694C661.307,739.694 738.229,662.772 738.229,568.027C738.229,473.281 661.307,396.362 566.561,396.362Z" style="fill:rgb(30,55,96);"/>
                <path d="M566.561,426.303C488.342,426.303 424.838,489.806 424.838,568.026C424.838,646.246 488.342,709.752 566.561,709.752C644.784,709.752 708.287,646.246 708.287,568.026C708.287,489.806 644.784,426.303 566.561,426.303ZM566.561,456.244C504.867,456.244 454.779,506.331 454.779,568.026C454.779,629.72 504.867,679.808 566.561,679.808C628.258,679.808 678.345,629.72 678.345,568.026C678.345,506.331 628.258,456.244 566.561,456.244Z" style="fill:rgb(30,55,96);"/>
            </g>
            <g id="escape-wheel" serif:id="escape wheel">
                <g id="teeth">
                    <g>
                        <g>
                            <g>
                                <clipPath id="_clip2">
                                    <path d="M566.561,-11.903C246.491,-11.903 -13.367,247.954 -13.367,568.026C-13.367,888.098 246.49,1147.95 566.561,1147.95C886.634,1147.95 1146.49,888.097 1146.49,568.026C1146.49,247.953 886.633,-11.903 566.561,-11.903ZM566.561,217.265C372.84,217.265 215.564,374.541 215.564,568.265C215.564,761.985 372.84,919.264 566.561,919.264C760.284,919.264 917.561,761.985 917.561,568.265C917.561,374.541 760.284,217.265 566.561,217.265Z"/>
                                </clipPath>
                                <g clip-path="url(#_clip2)">
                                    <path d="M750.261,251.144L625.764,15.374C623.879,10.435 629.731,6.136 635.784,-0C628.341,2.492 599.184,7.964 592.085,7.995C592.085,7.995 627.034,81.418 637.025,102.892C658.677,149.439 623.161,190.598 593.491,161.686C525.149,95.089 571.095,367.975 750.261,251.144Z" style="fill:rgb(57,107,151);"/>
                                    <path d="M209.886,491.716L24.129,682.977C20.013,686.292 14.115,682.057 6.411,678.198C11.082,684.504 25.293,710.545 27.518,717.286C27.518,717.286 86.548,661.359 103.883,645.223C141.462,610.244 191.579,631.303 173.252,668.456C131.033,754.033 376.365,626.008 209.886,491.716Z" style="fill:rgb(57,107,151);"/>
                                    <path d="M251.144,386.446L15.374,510.943C10.435,512.828 6.136,506.976 -0,500.925C2.492,508.365 7.964,537.523 7.995,544.622C7.995,544.622 81.418,509.672 102.892,499.684C149.439,478.03 190.598,513.545 161.686,543.216C95.089,611.558 367.975,565.611 251.144,386.446Z" style="fill:rgb(57,107,151);"/>
                                    <path d="M323.42,297.516L60.717,343.064C55.437,343.327 53.158,336.435 49.193,328.783C49.264,336.629 45.456,366.051 43.291,372.812C43.291,372.812 123.921,362.262 147.43,359.399C198.391,353.187 226.561,399.683 189.894,418.967C105.44,463.387 379.166,504.014 323.42,297.516Z" style="fill:rgb(57,107,151);"/>
                                    <path d="M419.639,235.272L155.72,197.41C150.618,196.03 150.579,188.77 149.171,180.266C146.814,187.752 134.101,214.557 129.954,220.319C129.954,220.319 209.898,235.201 233.141,239.741C283.527,249.584 295.95,302.508 255.12,309.518C161.069,325.662 408.847,448.888 419.639,235.272Z" style="fill:rgb(57,107,151);"/>
                                    <path d="M530.383,205.807L291.082,88.242C286.655,85.353 288.86,78.437 290.151,69.915C285.595,76.307 265.222,97.871 259.497,102.069C259.497,102.069 330.929,140.925 351.633,152.427C396.51,177.358 391.97,231.532 350.972,225.579C256.537,211.872 454.107,405.634 530.383,205.807Z" style="fill:rgb(57,107,151);"/>
                                    <path d="M644.815,212.752L453.555,26.995C450.237,22.879 454.475,16.981 458.333,9.277C452.026,13.948 425.987,28.16 419.245,30.384C419.245,30.384 475.173,89.414 491.309,106.749C526.288,144.328 505.229,194.448 468.074,176.118C382.498,133.9 510.524,379.231 644.815,212.752Z" style="fill:rgb(57,107,151);"/>
                                </g>
                            </g>
                        </g>
                    </g>
                </g>
            </g>
            <path id="jewel" d="M566.561,472.529C513.855,472.529 471.064,515.32 471.064,568.026C471.064,620.734 513.855,663.526 566.561,663.526C619.27,663.526 662.061,620.734 662.061,568.026C662.061,515.32 619.27,472.529 566.561,472.529ZM566.561,538.454C550.24,538.454 536.989,551.705 536.989,568.026C536.989,584.347 550.24,597.598 566.561,597.598C582.885,597.598 596.136,584.347 596.136,568.026C596.136,551.705 582.885,538.454 566.561,538.454Z" style="fill:rgb(218,56,72);"/>
        </g>
    </g>
</svg>
