<?xml version="1.0" encoding="UTF-8" standalone="no"?><!DOCTYPE svg PUBLIC "-//W3C//DTD SVG 1.1//EN" "http://www.w3.org/Graphics/SVG/1.1/DTD/svg11.dtd"><svg width="100%" height="100%" viewBox="0 0 370 57" version="1.1" xmlns="http://www.w3.org/2000/svg" xmlns:xlink="http://www.w3.org/1999/xlink" xml:space="preserve" xmlns:serif="http://www.serif.com/" style="fill-rule:evenodd;clip-rule:evenodd;stroke-linejoin:round;stroke-miterlimit:2;"><g id="full-logo" serif:id="full logo"><g id="watch-parts" serif:id="watch parts"><g id="hair-spring" serif:id="hair spring"><path d="M194.644,12.357c8.886,0 16.1,7.214 16.1,16.1c0,8.885 -7.214,16.1 -16.1,16.1c-8.885,0 -16.1,-7.215 -16.1,-16.1c0,-8.886 7.215,-16.1 16.1,-16.1Zm0,1.5c8.058,0 14.6,6.542 14.6,14.6c0,8.058 -6.542,14.6 -14.6,14.6c-8.058,0 -14.6,-6.542 -14.6,-14.6c0,-8.058 6.542,-14.6 14.6,-14.6Z" style="fill:#1e3760;"/><path d="M194.644,15.357c7.23,0 13.1,5.869 13.1,13.1c0,7.23 -5.87,13.1 -13.1,13.1c-7.23,0 -13.1,-5.87 -13.1,-13.1c0,-7.231 5.87,-13.1 13.1,-13.1Zm0,1.5c6.403,0 11.6,5.197 11.6,11.6c0,6.402 -5.197,11.6 -11.6,11.6c-6.402,0 -11.6,-5.198 -11.6,-11.6c0,-6.403 5.198,-11.6 11.6,-11.6Z" style="fill:#1e3760;"/><path d="M194.644,18.357c5.575,0 10.1,4.525 10.1,10.1c0,5.574 -4.525,10.1 -10.1,10.1c-5.574,0 -10.1,-4.526 -10.1,-10.1c0,-5.575 4.526,-10.1 10.1,-10.1Zm0,1.5c4.747,0 8.6,3.853 8.6,8.6c0,4.746 -3.853,8.6 -8.6,8.6c-4.746,0 -8.6,-3.854 -8.6,-8.6c0,-4.747 3.854,-8.6 8.6,-8.6Z" style="fill:#1e3760;"/><path d="M194.644,21.357c3.919,0 7.1,3.181 7.1,7.1c0,3.918 -3.181,7.1 -7.1,7.1c-3.918,0 -7.1,-3.182 -7.1,-7.1c0,-3.919 3.182,-7.1 7.1,-7.1Zm0,1.5c3.091,0 5.6,2.509 5.6,5.6c0,3.09 -2.509,5.6 -5.6,5.6c-3.09,0 -5.6,-2.51 -5.6,-5.6c0,-3.091 2.51,-5.6 5.6,-5.6Z" style="fill:#1e3760;"/></g><g id="escape-wheel" serif:id="escape wheel"><g id="teeth"><clipPath id="_clip1"><path d="M194.644,-0.596c16.035,0 29.053,13.018 29.053,29.053c0,16.034 -13.018,29.052 -29.053,29.052c-16.034,0 -29.052,-13.018 -29.052,-29.052c0,-16.035 13.018,-29.053 29.052,-29.053Zm0,11.48c9.705,0 17.584,7.88 17.584,17.584c0,9.705 -7.879,17.585 -17.584,17.585c-9.705,0 -17.584,-7.88 -17.584,-17.585c0,-9.704 7.879,-17.584 17.584,-17.584Z"/></clipPath><g clip-path="url(#_clip1)"><path d="M185.442,12.582l6.237,-11.812c0.094,-0.247 -0.199,-0.463 -0.502,-0.77c0.372,0.125 1.833,0.399 2.189,0.401c0,0 -1.751,3.678 -2.252,4.754c-1.084,2.332 0.695,4.393 2.181,2.945c3.424,-3.336 1.122,10.334 -7.853,4.482Z" style="fill:#396b97;"/><path d="M180.986,16.202l2.282,-13.16c0.013,-0.265 -0.332,-0.379 -0.715,-0.578c0.393,0.004 1.867,-0.187 2.206,-0.295c0,0 -0.529,4.039 -0.673,5.217c-0.311,2.553 2.019,3.964 2.985,2.127c2.225,-4.231 4.26,9.482 -6.085,6.689Z" style="fill:#396b97;"/><path d="M177.868,21.023l-1.897,-13.222c-0.069,-0.256 -0.433,-0.257 -0.858,-0.328c0.375,-0.118 1.717,-0.755 2.006,-0.963c0,0 0.746,4.005 0.973,5.17c0.493,2.524 3.144,3.146 3.496,1.101c0.808,-4.712 6.982,7.701 -3.72,8.242Z" style="fill:#396b97;"/><path d="M176.392,26.571l-5.89,-11.989c-0.144,-0.221 -0.491,-0.111 -0.918,-0.046c0.32,-0.228 1.401,-1.249 1.611,-1.536c0,0 1.947,3.579 2.523,4.616c1.249,2.248 3.963,2.021 3.665,-0.033c-0.687,-4.731 9.02,5.167 -0.991,8.988Z" style="fill:#396b97;"/><path d="M176.776,32.303l-9.306,-9.581c-0.206,-0.166 -0.502,0.046 -0.888,0.239c0.234,-0.316 0.947,-1.62 1.058,-1.958c0,0 2.957,2.802 3.826,3.61c1.882,1.752 4.393,0.697 3.475,-1.164c-2.115,-4.287 10.175,2.127 1.835,8.854Z" style="fill:#396b97;"/><path d="M178.843,37.577l-11.811,-6.237c-0.248,-0.094 -0.463,0.199 -0.771,0.502c0.125,-0.373 0.399,-1.834 0.401,-2.189c0,0 3.678,1.751 4.754,2.251c2.332,1.085 4.394,-0.694 2.945,-2.181c-3.336,-3.423 10.335,-1.122 4.482,7.854Z" style="fill:#396b97;"/><path d="M182.464,42.032l-13.161,-2.282c-0.264,-0.013 -0.379,0.333 -0.577,0.716c0.003,-0.393 -0.187,-1.867 -0.296,-2.206c0,0 4.039,0.529 5.217,0.672c2.553,0.311 3.964,-2.018 2.128,-2.984c-4.231,-2.225 9.482,-4.261 6.689,6.084Z" style="fill:#396b97;"/><path d="M187.284,45.15l-13.222,1.897c-0.255,0.069 -0.257,0.433 -0.328,0.859c-0.118,-0.375 -0.755,-1.718 -0.962,-2.006c0,0 4.005,-0.746 5.169,-0.973c2.524,-0.494 3.147,-3.145 1.101,-3.496c-4.711,-0.809 7.701,-6.982 8.242,3.719Z" style="fill:#396b97;"/><path d="M192.832,46.627l-11.988,5.889c-0.222,0.145 -0.112,0.491 -0.047,0.918c-0.228,-0.32 -1.249,-1.4 -1.536,-1.61c0,0 3.579,-1.947 4.616,-2.523c2.248,-1.249 2.021,-3.963 -0.033,-3.665c-4.731,0.687 5.167,-9.02 8.988,0.991Z" style="fill:#396b97;"/><path d="M198.565,46.279l-9.582,9.306c-0.166,0.206 0.046,0.501 0.239,0.887c-0.316,-0.234 -1.62,-0.946 -1.958,-1.057c0,0 2.802,-2.957 3.61,-3.826c1.753,-1.882 0.698,-4.393 -1.164,-3.475c-4.287,2.115 2.127,-10.175 8.855,-1.835Z" style="fill:#396b97;"/><path d="M203.847,44.355l-6.237,11.812c-0.094,0.247 0.199,0.463 0.502,0.77c-0.373,-0.125 -1.833,-0.399 -2.189,-0.401c0,0 1.751,-3.678 2.251,-4.754c1.085,-2.332 -0.694,-4.394 -2.18,-2.945c-3.424,3.336 -1.122,-10.335 7.853,-4.482Z" style="fill:#396b97;"/><path d="M208.302,40.735l-2.281,13.16c-0.014,0.265 0.332,0.379 0.715,0.578c-0.393,-0.004 -1.867,0.187 -2.206,0.295c0,0 0.529,-4.039 0.672,-5.217c0.311,-2.553 -2.018,-3.964 -2.984,-2.127c-2.225,4.231 -4.261,-9.482 6.084,-6.689Z" style="fill:#396b97;"/><path d="M211.421,35.914l1.896,13.222c0.07,0.255 0.433,0.257 0.859,0.328c-0.375,0.118 -1.718,0.755 -2.006,0.963c0,0 -0.746,-4.005 -0.973,-5.17c-0.493,-2.524 -3.145,-3.146 -3.496,-1.101c-0.809,4.712 -6.982,-7.701 3.72,-8.242Z" style="fill:#396b97;"/><path d="M212.897,30.366l5.889,11.989c0.145,0.221 0.492,0.111 0.919,0.046c-0.321,0.228 -1.401,1.249 -1.611,1.536c0,0 -1.947,-3.579 -2.523,-4.616c-1.249,-2.248 -3.963,-2.021 -3.665,0.033c0.687,4.731 -9.02,-5.167 0.991,-8.988Z" style="fill:#396b97;"/><path d="M212.513,24.634l9.306,9.581c0.206,0.166 0.501,-0.046 0.887,-0.239c-0.234,0.316 -0.946,1.62 -1.057,1.958c0,0 -2.957,-2.802 -3.826,-3.61c-1.882,-1.752 -4.393,-0.697 -3.475,1.164c2.115,4.287 -10.175,-2.127 -1.835,-8.854Z" style="fill:#396b97;"/><path d="M210.446,19.36l11.811,6.237c0.248,0.094 0.463,-0.199 0.77,-0.502c-0.124,0.373 -0.398,1.833 -0.4,2.189c0,0 -3.678,-1.751 -4.754,-2.251c-2.332,-1.085 -4.394,0.694 -2.945,2.181c3.336,3.423 -10.335,1.122 -4.482,-7.854Z" style="fill:#396b97;"/><path d="M206.825,14.905l13.161,2.281c0.264,0.014 0.378,-0.332 0.577,-0.715c-0.003,0.393 0.187,1.867 0.296,2.206c0,0 -4.04,-0.529 -5.217,-0.672c-2.553,-0.311 -3.965,2.018 -2.128,2.984c4.231,2.225 -9.482,4.261 -6.689,-6.084Z" style="fill:#396b97;"/><path d="M202.005,11.786l13.221,-1.896c0.256,-0.069 0.258,-0.433 0.328,-0.859c0.119,0.375 0.755,1.718 0.963,2.006c0,0 -4.005,0.746 -5.169,0.973c-2.524,0.493 -3.147,3.145 -1.101,3.496c4.711,0.809 -7.702,6.982 -8.242,-3.72Z" style="fill:#396b97;"/><path d="M196.457,10.31l11.988,-5.889c0.222,-0.145 0.111,-0.492 0.047,-0.918c0.228,0.32 1.249,1.4 1.535,1.61c0,0 -3.578,1.947 -4.615,2.523c-2.249,1.249 -2.021,3.963 0.033,3.665c4.731,-0.687 -5.167,9.02 -8.988,-0.991Z" style="fill:#396b97;"/><path d="M190.724,10.658l9.582,-9.306c0.166,-0.206 -0.046,-0.501 -0.24,-0.887c0.316,0.234 1.621,0.946 1.959,1.057c0,0 -2.802,2.957 -3.611,3.826c-1.752,1.882 -0.697,4.393 1.164,3.475c4.288,-2.115 -2.126,10.175 -8.854,1.835Z" style="fill:#396b97;"/></g></g></g><path id="jewel" d="M194.644,23.672c2.641,0 4.785,2.144 4.785,4.785c0,2.64 -2.144,4.784 -4.785,4.784c-2.64,0 -4.784,-2.144 -4.784,-4.784c0,-2.641 2.144,-4.785 4.784,-4.785Zm0,3.303c0.818,0 1.482,0.664 1.482,1.482c0,0.817 -0.664,1.481 -1.482,1.481c-0.817,0 -1.481,-0.664 -1.481,-1.481c0,-0.818 0.664,-1.482 1.481,-1.482Z" style="fill:#da3848;"/></g><g id="goodwatchbadwatch" transform="matrix(1,0,0,1,-147.725,-385.209)"><text x="146.735px" y="421.915px" style="font-family:'Merriweather-Bold', 'Merriweather';font-weight:700;font-size:30px;fill:#44a748;">good</text><text x="221.915px" y="421.915px" style="font-family:'Merriweather-Light', 'Merriweather';font-weight:300;font-size:30px;fill:#1e3760;">watch</text><text x="374.765px" y="421.915px" style="font-family:'Merriweather-Bold', 'Merriweather';font-weight:700;font-size:30px;fill:#da3848;">bad</text><text x="429.065px" y="421.915px" style="font-family:'Merriweather-Light', 'Merriweather';font-weight:300;font-size:30px;fill:#1e3760;">watch</text></g></g></svg>