<?xml version="1.0" encoding="UTF-8" standalone="no"?><!DOCTYPE svg PUBLIC "-//W3C//DTD SVG 1.1//EN" "http://www.w3.org/Graphics/SVG/1.1/DTD/svg11.dtd"><svg width="100%" height="100%" viewBox="0 0 225 59" version="1.1" xmlns="http://www.w3.org/2000/svg" xmlns:xlink="http://www.w3.org/1999/xlink" xml:space="preserve" xmlns:serif="http://www.serif.com/" style="fill-rule:evenodd;clip-rule:evenodd;stroke-linejoin:round;stroke-miterlimit:2;"><rect id="Artboard1" x="0" y="0" width="224.926" height="58.981" style="fill:none;"/><g id="medium-logo" serif:id="medium logo"><g id="icon"><clipPath id="_clip1"><rect x="165.486" y="0" width="59.44" height="58.981"/></clipPath><g clip-path="url(#_clip1)"><g id="hair-spring" serif:id="hair spring"><path d="M165.625,25.158c18.566,0 33.638,15.072 33.638,33.637c0,18.565 -15.072,33.638 -33.638,33.638c-18.565,0 -33.637,-15.073 -33.637,-33.638c0,-18.565 15.072,-33.637 33.637,-33.637Zm0,3.133c16.836,0 30.504,13.669 30.504,30.504c0,16.836 -13.668,30.504 -30.504,30.504c-16.835,0 -30.503,-13.668 -30.503,-30.504c0,-16.835 13.668,-30.504 30.503,-30.504Z" style="fill:#1e3760;"/><path d="M165.625,31.425c15.106,0 27.37,12.264 27.37,27.37c0,15.106 -12.264,27.37 -27.37,27.37c-15.105,0 -27.369,-12.264 -27.369,-27.37c0,-15.106 12.264,-27.37 27.369,-27.37Zm0,3.134c13.377,0 24.236,10.86 24.236,24.236c0,13.376 -10.859,24.236 -24.236,24.236c-13.376,0 -24.235,-10.86 -24.235,-24.236c0,-13.376 10.859,-24.236 24.235,-24.236Z" style="fill:#1e3760;"/><path d="M165.625,37.693c11.647,0 21.102,9.456 21.102,21.102c0,11.647 -9.455,21.102 -21.102,21.102c-11.646,0 -21.101,-9.455 -21.101,-21.102c0,-11.646 9.455,-21.102 21.101,-21.102Zm0,3.134c9.917,0 17.968,8.051 17.968,17.968c0,9.917 -8.051,17.968 -17.968,17.968c-9.916,0 -17.968,-8.051 -17.968,-17.968c0,-9.917 8.052,-17.968 17.968,-17.968Z" style="fill:#1e3760;"/><path d="M165.625,43.961c8.188,0 14.834,6.647 14.834,14.834c0,8.187 -6.646,14.834 -14.834,14.834c-8.187,0 -14.834,-6.647 -14.834,-14.834c0,-8.187 6.647,-14.834 14.834,-14.834Zm0,3.134c6.458,0 11.701,5.243 11.701,11.7c0,6.458 -5.243,11.7 -11.701,11.7c-6.457,0 -11.7,-5.242 -11.7,-11.7c0,-6.457 5.243,-11.7 11.7,-11.7Z" style="fill:#1e3760;"/></g><g id="teeth"><clipPath id="_clip2"><path d="M165.625,-1.905c33.502,0 60.701,27.199 60.701,60.7c0,33.502 -27.199,60.7 -60.701,60.7c-33.501,0 -60.7,-27.198 -60.7,-60.7c0,-33.501 27.199,-60.7 60.7,-60.7Zm0,23.987c20.277,0 36.739,16.462 36.739,36.738c0,20.277 -16.462,36.739 -36.739,36.739c-20.276,0 -36.738,-16.462 -36.738,-36.739c0,-20.276 16.462,-36.738 36.738,-36.738Z"/></clipPath><g clip-path="url(#_clip2)"><path d="M146.398,25.628l13.031,-24.678c0.197,-0.517 -0.415,-0.967 -1.049,-1.609c0.779,0.261 3.831,0.834 4.574,0.837c0,0 -3.658,7.685 -4.704,9.932c-2.266,4.873 1.451,9.181 4.557,6.154c7.153,-6.97 2.344,21.592 -16.409,9.364Z" style="fill:#396b97;"/><path d="M137.09,33.193l4.767,-27.497c0.028,-0.552 -0.694,-0.791 -1.495,-1.206c0.822,0.007 3.901,-0.391 4.609,-0.618c0,0 -1.104,8.44 -1.404,10.9c-0.65,5.334 4.216,8.283 6.235,4.445c4.649,-8.84 8.901,19.811 -12.712,13.976Z" style="fill:#396b97;"/><path d="M130.575,43.264l-3.963,-27.624c-0.145,-0.534 -0.905,-0.538 -1.795,-0.686c0.784,-0.246 3.59,-1.577 4.193,-2.011c0,0 1.557,8.368 2.033,10.801c1.03,5.273 6.569,6.574 7.303,2.3c1.69,-9.844 14.588,16.09 -7.771,17.22Z" style="fill:#396b97;"/><path d="M127.491,54.855l-12.305,-25.047c-0.303,-0.463 -1.027,-0.232 -1.919,-0.097c0.669,-0.477 2.926,-2.61 3.366,-3.209c0,0 4.067,7.477 5.271,9.644c2.609,4.697 8.279,4.222 7.656,-0.069c-1.434,-9.885 18.846,10.795 -2.069,18.778Z" style="fill:#396b97;"/><path d="M128.293,66.832l-19.443,-20.019c-0.431,-0.347 -1.048,0.097 -1.854,0.501c0.488,-0.66 1.976,-3.386 2.209,-4.092c0,0 6.178,5.854 7.993,7.543c3.933,3.661 9.179,1.457 7.261,-2.432c-4.419,-8.957 21.259,4.443 3.834,18.499Z" style="fill:#396b97;"/><path d="M132.611,77.851l-24.677,-13.031c-0.517,-0.197 -0.967,0.415 -1.609,1.049c0.261,-0.779 0.833,-3.831 0.836,-4.574c0,0 7.686,3.658 9.933,4.703c4.872,2.267 9.18,-1.45 6.154,-4.556c-6.971,-7.153 21.592,-2.344 9.363,16.409Z" style="fill:#396b97;"/><path d="M202.958,50.808l19.443,20.019c0.431,0.347 1.048,-0.096 1.854,-0.5c-0.489,0.66 -1.976,3.385 -2.209,4.091c0,0 -6.179,-5.854 -7.993,-7.543c-3.933,-3.661 -9.179,-1.457 -7.261,2.432c4.419,8.957 -21.259,-4.443 -3.834,-18.499Z" style="fill:#396b97;"/><path d="M198.639,39.79l24.678,13.031c0.517,0.197 0.967,-0.416 1.609,-1.049c-0.261,0.779 -0.833,3.831 -0.837,4.574c0,0 -7.685,-3.659 -9.932,-4.704c-4.872,-2.267 -9.18,1.451 -6.154,4.556c6.97,7.154 -21.592,2.344 -9.364,-16.408Z" style="fill:#396b97;"/><path d="M191.075,30.481l27.496,4.768c0.553,0.027 0.791,-0.694 1.206,-1.495c-0.007,0.821 0.391,3.901 0.618,4.609c0,0 -8.439,-1.105 -10.9,-1.405c-5.334,-0.649 -8.283,4.217 -4.445,6.236c8.84,4.649 -19.81,8.901 -13.975,-12.713Z" style="fill:#396b97;"/><path d="M181.003,23.966l27.624,-3.962c0.534,-0.145 0.539,-0.905 0.686,-1.795c0.246,0.784 1.577,3.589 2.011,4.192c0,0 -8.367,1.558 -10.8,2.033c-5.274,1.03 -6.574,6.57 -2.301,7.304c9.844,1.69 -16.09,14.587 -17.22,-7.772Z" style="fill:#396b97;"/><path d="M169.412,20.882l25.047,-12.305c0.464,-0.302 0.233,-1.026 0.098,-1.918c0.476,0.669 2.609,2.926 3.208,3.365c0,0 -7.477,4.068 -9.644,5.271c-4.697,2.61 -4.222,8.28 0.07,7.657c9.884,-1.435 -10.795,18.846 -18.779,-2.07Z" style="fill:#396b97;"/><path d="M157.435,21.609l20.019,-19.442c0.347,-0.431 -0.096,-1.049 -0.5,-1.855c0.66,0.489 3.385,1.977 4.091,2.209c0,0 -5.854,6.179 -7.543,7.993c-3.661,3.934 -1.457,9.179 2.432,7.261c8.957,-4.419 -4.443,21.259 -18.499,3.834Z" style="fill:#396b97;"/></g></g><path id="jewel" d="M165.625,48.8c5.517,0 9.996,4.479 9.996,9.995c0,5.517 -4.479,9.996 -9.996,9.996c-5.516,0 -9.995,-4.479 -9.995,-9.996c0,-5.516 4.479,-9.995 9.995,-9.995Zm0,6.9c1.709,0 3.096,1.387 3.096,3.095c0,1.709 -1.387,3.096 -3.096,3.096c-1.708,0 -3.095,-1.387 -3.095,-3.096c0,-1.708 1.387,-3.095 3.095,-3.095Z" style="fill:#da3848;"/></g></g><g id="goodwatchbadwatch"><path d="M7.62,38.565c-2.68,0 -4.62,-0.42 -5.82,-1.26c-1.2,-0.84 -1.8,-1.98 -1.8,-3.42c0,-0.82 0.275,-1.595 0.825,-2.325c0.55,-0.73 1.215,-1.275 1.995,-1.635c-0.92,-0.54 -1.38,-1.4 -1.38,-2.58c0,-0.68 0.22,-1.325 0.66,-1.935c0.44,-0.61 1.01,-1.085 1.71,-1.425c-1.1,-0.42 -1.92,-1.06 -2.46,-1.92c-0.54,-0.86 -0.81,-1.88 -0.81,-3.06c0,-1.14 0.335,-2.135 1.005,-2.985c0.67,-0.85 1.57,-1.505 2.7,-1.965c1.13,-0.46 2.355,-0.69 3.675,-0.69c2.34,0 4.08,0.45 5.22,1.35c0.26,-0.34 0.7,-0.66 1.32,-0.96c0.62,-0.3 1.26,-0.45 1.92,-0.45l1.05,0l0,3.27l-3.09,0c0.3,0.64 0.45,1.32 0.45,2.04c0.02,1.82 -0.62,3.275 -1.92,4.365c-1.3,1.09 -3.08,1.635 -5.34,1.635c-0.94,0 -1.73,-0.07 -2.37,-0.21c-0.2,0.26 -0.355,0.535 -0.465,0.825c-0.11,0.29 -0.165,0.545 -0.165,0.765c0,0.66 0.235,1.11 0.705,1.35c0.47,0.24 1.315,0.36 2.535,0.36l3.21,0c4.08,0 6.12,1.48 6.12,4.44c0,1.24 -0.44,2.35 -1.32,3.33c-0.88,0.98 -2.05,1.74 -3.51,2.28c-1.46,0.54 -3.01,0.81 -4.65,0.81Zm0.21,-15.81c1.86,0 2.79,-1.27 2.79,-3.81c0,-1.3 -0.235,-2.255 -0.705,-2.865c-0.47,-0.61 -1.185,-0.915 -2.145,-0.915c-0.94,0 -1.665,0.305 -2.175,0.915c-0.51,0.61 -0.765,1.525 -0.765,2.745c0,2.62 1,3.93 3,3.93Zm0.24,13.74c1.26,0 2.35,-0.305 3.27,-0.915c0.92,-0.61 1.38,-1.455 1.38,-2.535c0,-0.86 -0.225,-1.48 -0.675,-1.86c-0.45,-0.38 -1.255,-0.57 -2.415,-0.57l-3.27,0c-0.5,0 -0.96,-0.03 -1.38,-0.09c-0.54,0.72 -0.81,1.58 -0.81,2.58c0,1.1 0.3,1.94 0.9,2.52c0.6,0.58 1.6,0.87 3,0.87Z" style="fill:#44a748;fill-rule:nonzero;"/><path d="M19.02,22.155c0,-1.88 0.375,-3.48 1.125,-4.8c0.75,-1.32 1.755,-2.315 3.015,-2.985c1.26,-0.67 2.63,-1.005 4.11,-1.005c2.52,0 4.465,0.775 5.835,2.325c1.37,1.55 2.055,3.655 2.055,6.315c0,1.9 -0.375,3.515 -1.125,4.845c-0.75,1.33 -1.75,2.32 -3,2.97c-1.25,0.65 -2.625,0.975 -4.125,0.975c-2.5,0 -4.44,-0.775 -5.82,-2.325c-1.38,-1.55 -2.07,-3.655 -2.07,-6.315Zm8.13,6.69c2.26,0 3.39,-2.18 3.39,-6.54c0,-2.28 -0.27,-4.015 -0.81,-5.205c-0.54,-1.19 -1.42,-1.785 -2.64,-1.785c-2.32,0 -3.48,2.18 -3.48,6.54c0,2.28 0.285,4.015 0.855,5.205c0.57,1.19 1.465,1.785 2.685,1.785Z" style="fill:#44a748;fill-rule:nonzero;"/><path d="M37.89,22.155c0,-1.88 0.375,-3.48 1.125,-4.8c0.75,-1.32 1.755,-2.315 3.015,-2.985c1.26,-0.67 2.63,-1.005 4.11,-1.005c2.52,0 4.465,0.775 5.835,2.325c1.37,1.55 2.055,3.655 2.055,6.315c0,1.9 -0.375,3.515 -1.125,4.845c-0.75,1.33 -1.75,2.32 -3,2.97c-1.25,0.65 -2.625,0.975 -4.125,0.975c-2.5,0 -4.44,-0.775 -5.82,-2.325c-1.38,-1.55 -2.07,-3.655 -2.07,-6.315Zm8.13,6.69c2.26,0 3.39,-2.18 3.39,-6.54c0,-2.28 -0.27,-4.015 -0.81,-5.205c-0.54,-1.19 -1.42,-1.785 -2.64,-1.785c-2.32,0 -3.48,2.18 -3.48,6.54c0,2.28 0.285,4.015 0.855,5.205c0.57,1.19 1.465,1.785 2.685,1.785Z" style="fill:#44a748;fill-rule:nonzero;"/><path d="M63.03,30.795c-1.24,0 -2.35,-0.295 -3.33,-0.885c-0.98,-0.59 -1.76,-1.505 -2.34,-2.745c-0.58,-1.24 -0.87,-2.79 -0.87,-4.65c0,-1.68 0.345,-3.215 1.035,-4.605c0.69,-1.39 1.705,-2.495 3.045,-3.315c1.34,-0.82 2.95,-1.23 4.83,-1.23c0.76,0 1.48,0.08 2.16,0.24l0,-5.07l-2.94,-0.42l0,-1.65l6.18,-0.6l0.09,0l0.84,0.63l0,22.14l1.62,0l0,1.71c-1.44,0.3 -2.63,0.45 -3.57,0.45c-0.64,0 -1.095,-0.105 -1.365,-0.315c-0.27,-0.21 -0.405,-0.625 -0.405,-1.245l0,-0.84c-0.52,0.7 -1.23,1.275 -2.13,1.725c-0.9,0.45 -1.85,0.675 -2.85,0.675Zm1.56,-2.49c0.66,0 1.245,-0.135 1.755,-0.405c0.51,-0.27 0.915,-0.595 1.215,-0.975l0,-10.92c-0.14,-0.2 -0.435,-0.37 -0.885,-0.51c-0.45,-0.14 -0.935,-0.21 -1.455,-0.21c-1.28,0 -2.305,0.555 -3.075,1.665c-0.77,1.11 -1.155,2.885 -1.155,5.325c0,2.04 0.33,3.555 0.99,4.545c0.66,0.99 1.53,1.485 2.61,1.485Z" style="fill:#44a748;fill-rule:nonzero;"/><path d="M74.1,13.815l6.51,0l0,1.23l-2.4,0.36l2.67,9.33l0.99,4.17l0.99,-4.2l3,-10.89l2.49,0l3,10.89l0.96,4.23l1.08,-4.2l2.64,-9.3l-2.31,-0.39l0,-1.23l5.88,0l0,1.23l-1.65,0.39l-4.68,15.27l-2.43,0l-3.27,-11.16l-0.84,-3.78l-0.72,3.78l-3.15,11.16l-2.37,0l-4.8,-15.3l-1.59,-0.36l0,-1.23Z" style="fill:#1e3760;fill-rule:nonzero;"/><path d="M100.86,26.085c0,-1.94 0.96,-3.345 2.88,-4.215c1.92,-0.87 4.31,-1.335 7.17,-1.395l0,-0.93c0,-1.02 -0.105,-1.825 -0.315,-2.415c-0.21,-0.59 -0.575,-1.02 -1.095,-1.29c-0.52,-0.27 -1.25,-0.405 -2.19,-0.405c-1.02,0 -1.945,0.155 -2.775,0.465c-0.83,0.31 -1.635,0.685 -2.415,1.125l-0.66,-1.32c0.22,-0.2 0.68,-0.48 1.38,-0.84c0.7,-0.36 1.5,-0.68 2.4,-0.96c0.9,-0.28 1.77,-0.42 2.61,-0.42c1.36,0 2.435,0.19 3.225,0.57c0.79,0.38 1.36,0.99 1.71,1.83c0.35,0.84 0.525,1.97 0.525,3.39l0,9.9l1.86,0l0,1.11c-1.1,0.3 -2.03,0.45 -2.79,0.45c-0.48,0 -0.81,-0.075 -0.99,-0.225c-0.18,-0.15 -0.27,-0.495 -0.27,-1.035l0,-1.11c-0.72,0.64 -1.505,1.205 -2.355,1.695c-0.85,0.49 -1.815,0.735 -2.895,0.735c-1.44,0 -2.635,-0.4 -3.585,-1.2c-0.95,-0.8 -1.425,-1.97 -1.425,-3.51Zm5.91,2.94c0.56,0 1.23,-0.18 2.01,-0.54c0.78,-0.36 1.49,-0.79 2.13,-1.29l0,-5.31c-2.42,0.02 -4.255,0.38 -5.505,1.08c-1.25,0.7 -1.875,1.64 -1.875,2.82c0,1.14 0.29,1.965 0.87,2.475c0.58,0.51 1.37,0.765 2.37,0.765Z" style="fill:#1e3760;fill-rule:nonzero;"/><path d="M122.58,30.795c-1.06,0 -1.86,-0.245 -2.4,-0.735c-0.54,-0.49 -0.81,-1.365 -0.81,-2.625l0,-11.85l-2.28,0l0,-1.17c1,-0.22 1.58,-0.38 1.74,-0.48c0.3,-0.16 0.52,-0.47 0.66,-0.93c0.12,-0.3 0.28,-0.84 0.48,-1.62c0.2,-0.78 0.35,-1.39 0.45,-1.83l1.38,0l0,4.26l5.31,0l0,1.77l-5.31,0l0,9.72c0,1.16 0.04,1.975 0.12,2.445c0.08,0.47 0.24,0.775 0.48,0.915c0.24,0.14 0.66,0.21 1.26,0.21c0.58,0 1.23,-0.08 1.95,-0.24c0.72,-0.16 1.26,-0.33 1.62,-0.51l0.39,1.14c-0.46,0.36 -1.22,0.705 -2.28,1.035c-1.06,0.33 -1.98,0.495 -2.76,0.495Z" style="fill:#1e3760;fill-rule:nonzero;"/><path d="M129.24,22.245c0,-1.62 0.315,-3.105 0.945,-4.455c0.63,-1.35 1.57,-2.425 2.82,-3.225c1.25,-0.8 2.775,-1.2 4.575,-1.2c0.78,0 1.54,0.095 2.28,0.285c0.74,0.19 1.38,0.395 1.92,0.615l-0.12,4.29l-1.5,0l-0.63,-2.88c-0.12,-0.6 -0.98,-0.9 -2.58,-0.9c-1.56,0 -2.805,0.6 -3.735,1.8c-0.93,1.2 -1.395,2.84 -1.395,4.92c0,2.48 0.5,4.36 1.5,5.64c1,1.28 2.3,1.92 3.9,1.92c0.84,0 1.655,-0.14 2.445,-0.42c0.79,-0.28 1.445,-0.6 1.965,-0.96l0.48,0.99c-0.58,0.58 -1.38,1.08 -2.4,1.5c-1.02,0.42 -2.03,0.63 -3.03,0.63c-1.58,0 -2.93,-0.375 -4.05,-1.125c-1.12,-0.75 -1.965,-1.77 -2.535,-3.06c-0.57,-1.29 -0.855,-2.745 -0.855,-4.365Z" style="fill:#1e3760;fill-rule:nonzero;"/><path d="M146.58,7.785l-2.67,-0.27l0,-1.11l4.44,-0.51l0.06,0l0.57,0.39l0,7.14l-0.06,2.49c0.64,-0.58 1.54,-1.14 2.7,-1.68c1.16,-0.54 2.3,-0.81 3.42,-0.81c1.26,0 2.24,0.24 2.94,0.72c0.7,0.48 1.19,1.225 1.47,2.235c0.28,1.01 0.42,2.375 0.42,4.095l0,8.46l2.19,0.24l0,1.29l-6.72,0l0,-1.29l2.1,-0.24l0,-8.49c0,-1.28 -0.085,-2.28 -0.255,-3c-0.17,-0.72 -0.505,-1.26 -1.005,-1.62c-0.5,-0.36 -1.23,-0.54 -2.19,-0.54c-0.8,0 -1.66,0.195 -2.58,0.585c-0.92,0.39 -1.73,0.855 -2.43,1.395l0,11.67l2.22,0.24l0,1.29l-6.51,0l0,-1.29l1.89,-0.21l0,-21.18Z" style="fill:#1e3760;fill-rule:nonzero;"/><path d="M19.89,34.525l5.49,-0.66l0.06,0l0.84,0.57l0,8.85c0.54,-0.54 1.205,-0.995 1.995,-1.365c0.79,-0.37 1.645,-0.555 2.565,-0.555c1.92,0 3.485,0.675 4.695,2.025c1.21,1.35 1.815,3.415 1.815,6.195c0,1.72 -0.36,3.28 -1.08,4.68c-0.72,1.4 -1.755,2.505 -3.105,3.315c-1.35,0.81 -2.915,1.215 -4.695,1.215c-1.58,0 -2.95,-0.135 -4.11,-0.405c-1.16,-0.27 -1.9,-0.515 -2.22,-0.735l0,-21.21l-2.25,-0.36l0,-1.56Zm9.36,9.48c-0.6,0 -1.165,0.135 -1.695,0.405c-0.53,0.27 -0.955,0.575 -1.275,0.915l0,10.95c0.12,0.22 0.4,0.4 0.84,0.54c0.44,0.14 0.94,0.21 1.5,0.21c1.28,0 2.305,-0.595 3.075,-1.785c0.77,-1.19 1.155,-2.955 1.155,-5.295c0,-2.02 -0.33,-3.515 -0.99,-4.485c-0.66,-0.97 -1.53,-1.455 -2.61,-1.455Z" style="fill:#da3848;fill-rule:nonzero;"/><path d="M39.45,53.785c0,-1.82 0.915,-3.19 2.745,-4.11c1.83,-0.92 4.195,-1.39 7.095,-1.41l0,-0.69c0,-0.82 -0.085,-1.46 -0.255,-1.92c-0.17,-0.46 -0.48,-0.805 -0.93,-1.035c-0.45,-0.23 -1.105,-0.345 -1.965,-0.345c-0.98,0 -1.86,0.125 -2.64,0.375c-0.78,0.25 -1.59,0.575 -2.43,0.975l-0.93,-1.92c0.3,-0.26 0.805,-0.57 1.515,-0.93c0.71,-0.36 1.555,-0.675 2.535,-0.945c0.98,-0.27 1.99,-0.405 3.03,-0.405c1.54,0 2.745,0.2 3.615,0.6c0.87,0.4 1.495,1.04 1.875,1.92c0.38,0.88 0.57,2.06 0.57,3.54l0,9.18l1.62,0l0,1.68c-0.4,0.1 -0.97,0.2 -1.71,0.3c-0.74,0.1 -1.39,0.15 -1.95,0.15c-0.68,0 -1.135,-0.1 -1.365,-0.3c-0.23,-0.2 -0.345,-0.61 -0.345,-1.23l0,-0.81c-0.54,0.6 -1.24,1.14 -2.1,1.62c-0.86,0.48 -1.83,0.72 -2.91,0.72c-0.92,0 -1.765,-0.195 -2.535,-0.585c-0.77,-0.39 -1.385,-0.96 -1.845,-1.71c-0.46,-0.75 -0.69,-1.655 -0.69,-2.715Zm6.99,2.52c0.42,0 0.9,-0.125 1.44,-0.375c0.54,-0.25 1.01,-0.555 1.41,-0.915l0,-4.92c-1.8,0 -3.145,0.305 -4.035,0.915c-0.89,0.61 -1.335,1.395 -1.335,2.355c0,0.96 0.225,1.69 0.675,2.19c0.45,0.5 1.065,0.75 1.845,0.75Z" style="fill:#da3848;fill-rule:nonzero;"/><path d="M63.03,58.795c-1.24,0 -2.35,-0.295 -3.33,-0.885c-0.98,-0.59 -1.76,-1.505 -2.34,-2.745c-0.58,-1.24 -0.87,-2.79 -0.87,-4.65c0,-1.68 0.345,-3.215 1.035,-4.605c0.69,-1.39 1.705,-2.495 3.045,-3.315c1.34,-0.82 2.95,-1.23 4.83,-1.23c0.76,0 1.48,0.08 2.16,0.24l0,-5.07l-2.94,-0.42l0,-1.65l6.18,-0.6l0.09,0l0.84,0.63l0,22.14l1.62,0l0,1.71c-1.44,0.3 -2.63,0.45 -3.57,0.45c-0.64,0 -1.095,-0.105 -1.365,-0.315c-0.27,-0.21 -0.405,-0.625 -0.405,-1.245l0,-0.84c-0.52,0.7 -1.23,1.275 -2.13,1.725c-0.9,0.45 -1.85,0.675 -2.85,0.675Zm1.56,-2.49c0.66,0 1.245,-0.135 1.755,-0.405c0.51,-0.27 0.915,-0.595 1.215,-0.975l0,-10.92c-0.14,-0.2 -0.435,-0.37 -0.885,-0.51c-0.45,-0.14 -0.935,-0.21 -1.455,-0.21c-1.28,0 -2.305,0.555 -3.075,1.665c-0.77,1.11 -1.155,2.885 -1.155,5.325c0,2.04 0.33,3.555 0.99,4.545c0.66,0.99 1.53,1.485 2.61,1.485Z" style="fill:#da3848;fill-rule:nonzero;"/><path d="M74.1,41.815l6.51,0l0,1.23l-2.4,0.36l2.67,9.33l0.99,4.17l0.99,-4.2l3,-10.89l2.49,0l3,10.89l0.96,4.23l1.08,-4.2l2.64,-9.3l-2.31,-0.39l0,-1.23l5.88,0l0,1.23l-1.65,0.39l-4.68,15.27l-2.43,0l-3.27,-11.16l-0.84,-3.78l-0.72,3.78l-3.15,11.16l-2.37,0l-4.8,-15.3l-1.59,-0.36l0,-1.23Z" style="fill:#1e3760;fill-rule:nonzero;"/><path d="M100.86,54.085c0,-1.94 0.96,-3.345 2.88,-4.215c1.92,-0.87 4.31,-1.335 7.17,-1.395l0,-0.93c0,-1.02 -0.105,-1.825 -0.315,-2.415c-0.21,-0.59 -0.575,-1.02 -1.095,-1.29c-0.52,-0.27 -1.25,-0.405 -2.19,-0.405c-1.02,0 -1.945,0.155 -2.775,0.465c-0.83,0.31 -1.635,0.685 -2.415,1.125l-0.66,-1.32c0.22,-0.2 0.68,-0.48 1.38,-0.84c0.7,-0.36 1.5,-0.68 2.4,-0.96c0.9,-0.28 1.77,-0.42 2.61,-0.42c1.36,0 2.435,0.19 3.225,0.57c0.79,0.38 1.36,0.99 1.71,1.83c0.35,0.84 0.525,1.97 0.525,3.39l0,9.9l1.86,0l0,1.11c-1.1,0.3 -2.03,0.45 -2.79,0.45c-0.48,0 -0.81,-0.075 -0.99,-0.225c-0.18,-0.15 -0.27,-0.495 -0.27,-1.035l0,-1.11c-0.72,0.64 -1.505,1.205 -2.355,1.695c-0.85,0.49 -1.815,0.735 -2.895,0.735c-1.44,0 -2.635,-0.4 -3.585,-1.2c-0.95,-0.8 -1.425,-1.97 -1.425,-3.51Zm5.91,2.94c0.56,0 1.23,-0.18 2.01,-0.54c0.78,-0.36 1.49,-0.79 2.13,-1.29l0,-5.31c-2.42,0.02 -4.255,0.38 -5.505,1.08c-1.25,0.7 -1.875,1.64 -1.875,2.82c0,1.14 0.29,1.965 0.87,2.475c0.58,0.51 1.37,0.765 2.37,0.765Z" style="fill:#1e3760;fill-rule:nonzero;"/><path d="M122.58,58.795c-1.06,0 -1.86,-0.245 -2.4,-0.735c-0.54,-0.49 -0.81,-1.365 -0.81,-2.625l0,-11.85l-2.28,0l0,-1.17c1,-0.22 1.58,-0.38 1.74,-0.48c0.3,-0.16 0.52,-0.47 0.66,-0.93c0.12,-0.3 0.28,-0.84 0.48,-1.62c0.2,-0.78 0.35,-1.39 0.45,-1.83l1.38,0l0,4.26l5.31,0l0,1.77l-5.31,0l0,9.72c0,1.16 0.04,1.975 0.12,2.445c0.08,0.47 0.24,0.775 0.48,0.915c0.24,0.14 0.66,0.21 1.26,0.21c0.58,0 1.23,-0.08 1.95,-0.24c0.72,-0.16 1.26,-0.33 1.62,-0.51l0.39,1.14c-0.46,0.36 -1.22,0.705 -2.28,1.035c-1.06,0.33 -1.98,0.495 -2.76,0.495Z" style="fill:#1e3760;fill-rule:nonzero;"/><path d="M129.24,50.245c0,-1.62 0.315,-3.105 0.945,-4.455c0.63,-1.35 1.57,-2.425 2.82,-3.225c1.25,-0.8 2.775,-1.2 4.575,-1.2c0.78,0 1.54,0.095 2.28,0.285c0.74,0.19 1.38,0.395 1.92,0.615l-0.12,4.29l-1.5,0l-0.63,-2.88c-0.12,-0.6 -0.98,-0.9 -2.58,-0.9c-1.56,0 -2.805,0.6 -3.735,1.8c-0.93,1.2 -1.395,2.84 -1.395,4.92c0,2.48 0.5,4.36 1.5,5.64c1,1.28 2.3,1.92 3.9,1.92c0.84,0 1.655,-0.14 2.445,-0.42c0.79,-0.28 1.445,-0.6 1.965,-0.96l0.48,0.99c-0.58,0.58 -1.38,1.08 -2.4,1.5c-1.02,0.42 -2.03,0.63 -3.03,0.63c-1.58,0 -2.93,-0.375 -4.05,-1.125c-1.12,-0.75 -1.965,-1.77 -2.535,-3.06c-0.57,-1.29 -0.855,-2.745 -0.855,-4.365Z" style="fill:#1e3760;fill-rule:nonzero;"/><path d="M146.58,35.785l-2.67,-0.27l0,-1.11l4.44,-0.51l0.06,0l0.57,0.39l0,7.14l-0.06,2.49c0.64,-0.58 1.54,-1.14 2.7,-1.68c1.16,-0.54 2.3,-0.81 3.42,-0.81c1.26,0 2.24,0.24 2.94,0.72c0.7,0.48 1.19,1.225 1.47,2.235c0.28,1.01 0.42,2.375 0.42,4.095l0,8.46l2.19,0.24l0,1.29l-6.72,0l0,-1.29l2.1,-0.24l0,-8.49c0,-1.28 -0.085,-2.28 -0.255,-3c-0.17,-0.72 -0.505,-1.26 -1.005,-1.62c-0.5,-0.36 -1.23,-0.54 -2.19,-0.54c-0.8,0 -1.66,0.195 -2.58,0.585c-0.92,0.39 -1.73,0.855 -2.43,1.395l0,11.67l2.22,0.24l0,1.29l-6.51,0l0,-1.29l1.89,-0.21l0,-21.18Z" style="fill:#1e3760;fill-rule:nonzero;"/></g></g></svg>