<?xml version="1.0" encoding="UTF-8" standalone="no"?><!DOCTYPE svg PUBLIC "-//W3C//DTD SVG 1.1//EN" "http://www.w3.org/Graphics/SVG/1.1/DTD/svg11.dtd"><svg width="100%" height="100%" viewBox="0 0 162 57" version="1.1" xmlns="http://www.w3.org/2000/svg" xmlns:xlink="http://www.w3.org/1999/xlink" xml:space="preserve" xmlns:serif="http://www.serif.com/" style="fill-rule:evenodd;clip-rule:evenodd;stroke-linejoin:round;stroke-miterlimit:2;"><g id="truncated-logo" serif:id="truncated logo"><g id="watch-parts" serif:id="watch parts"><g id="hair-spring" serif:id="hair spring"><path d="M80.035,12.357c8.886,0 16.1,7.214 16.1,16.1c0,8.885 -7.214,16.1 -16.1,16.1c-8.885,0 -16.1,-7.215 -16.1,-16.1c0,-8.886 7.215,-16.1 16.1,-16.1Zm0,1.5c8.058,0 14.6,6.542 14.6,14.6c0,8.058 -6.542,14.6 -14.6,14.6c-8.058,0 -14.6,-6.542 -14.6,-14.6c0,-8.058 6.542,-14.6 14.6,-14.6Z" style="fill:#1e3760;"/><path d="M80.035,15.357c7.23,0 13.1,5.869 13.1,13.1c0,7.23 -5.87,13.1 -13.1,13.1c-7.23,0 -13.1,-5.87 -13.1,-13.1c0,-7.231 5.87,-13.1 13.1,-13.1Zm0,1.5c6.403,0 11.6,5.197 11.6,11.6c0,6.402 -5.197,11.6 -11.6,11.6c-6.402,0 -11.6,-5.198 -11.6,-11.6c0,-6.403 5.198,-11.6 11.6,-11.6Z" style="fill:#1e3760;"/><path d="M80.035,18.357c5.575,0 10.1,4.525 10.1,10.1c0,5.574 -4.525,10.1 -10.1,10.1c-5.574,0 -10.1,-4.526 -10.1,-10.1c0,-5.575 4.526,-10.1 10.1,-10.1Zm0,1.5c4.747,0 8.6,3.853 8.6,8.6c0,4.746 -3.853,8.6 -8.6,8.6c-4.746,0 -8.6,-3.854 -8.6,-8.6c0,-4.747 3.854,-8.6 8.6,-8.6Z" style="fill:#1e3760;"/><path d="M80.035,21.357c3.919,0 7.1,3.181 7.1,7.1c0,3.918 -3.181,7.1 -7.1,7.1c-3.918,0 -7.1,-3.182 -7.1,-7.1c0,-3.919 3.182,-7.1 7.1,-7.1Zm0,1.5c3.091,0 5.6,2.509 5.6,5.6c0,3.09 -2.509,5.6 -5.6,5.6c-3.09,0 -5.6,-2.51 -5.6,-5.6c0,-3.091 2.51,-5.6 5.6,-5.6Z" style="fill:#1e3760;"/></g><g id="teeth"><clipPath id="_clip1"><path d="M80.035,-0.596c16.035,0 29.053,13.018 29.053,29.053c0,16.034 -13.018,29.052 -29.053,29.052c-16.034,0 -29.052,-13.018 -29.052,-29.052c0,-16.035 13.018,-29.053 29.052,-29.053Zm0,11.48c9.705,0 17.584,7.88 17.584,17.584c0,9.705 -7.879,17.585 -17.584,17.585c-9.705,0 -17.584,-7.88 -17.584,-17.585c0,-9.704 7.879,-17.584 17.584,-17.584Z"/></clipPath><g clip-path="url(#_clip1)"><path d="M70.833,12.582l6.237,-11.812c0.094,-0.247 -0.199,-0.463 -0.502,-0.77c0.372,0.125 1.833,0.399 2.189,0.401c0,0 -1.751,3.678 -2.252,4.754c-1.084,2.332 0.695,4.393 2.181,2.945c3.424,-3.336 1.122,10.334 -7.853,4.482Z" style="fill:#396b97;"/><path d="M66.377,16.202l2.282,-13.16c0.013,-0.265 -0.332,-0.379 -0.715,-0.578c0.393,0.004 1.867,-0.187 2.206,-0.295c0,0 -0.529,4.039 -0.673,5.217c-0.311,2.553 2.019,3.964 2.985,2.127c2.225,-4.231 4.26,9.482 -6.085,6.689Z" style="fill:#396b97;"/><path d="M63.259,21.023l-1.897,-13.222c-0.069,-0.256 -0.433,-0.257 -0.858,-0.328c0.375,-0.118 1.717,-0.755 2.006,-0.963c0,0 0.746,4.005 0.973,5.17c0.493,2.524 3.144,3.146 3.496,1.101c0.808,-4.712 6.982,7.701 -3.72,8.242Z" style="fill:#396b97;"/><path d="M61.783,26.571l-5.89,-11.989c-0.144,-0.221 -0.491,-0.111 -0.918,-0.046c0.32,-0.228 1.401,-1.249 1.611,-1.536c0,0 1.947,3.579 2.523,4.616c1.249,2.248 3.963,2.021 3.665,-0.033c-0.687,-4.731 9.02,5.167 -0.991,8.988Z" style="fill:#396b97;"/><path d="M62.167,32.303l-9.306,-9.581c-0.206,-0.166 -0.502,0.046 -0.888,0.239c0.234,-0.316 0.947,-1.62 1.058,-1.958c0,0 2.957,2.802 3.826,3.61c1.882,1.752 4.393,0.697 3.475,-1.164c-2.115,-4.287 10.175,2.127 1.835,8.854Z" style="fill:#396b97;"/><path d="M64.234,37.577l-11.811,-6.237c-0.248,-0.094 -0.463,0.199 -0.771,0.502c0.125,-0.373 0.399,-1.834 0.401,-2.189c0,0 3.678,1.751 4.754,2.251c2.332,1.085 4.394,-0.694 2.945,-2.181c-3.336,-3.423 10.335,-1.122 4.482,7.854Z" style="fill:#396b97;"/><path d="M67.855,42.032l-13.161,-2.282c-0.264,-0.013 -0.379,0.333 -0.577,0.716c0.003,-0.393 -0.187,-1.867 -0.296,-2.206c0,0 4.039,0.529 5.217,0.672c2.553,0.311 3.964,-2.018 2.128,-2.984c-4.231,-2.225 9.482,-4.261 6.689,6.084Z" style="fill:#396b97;"/><path d="M72.675,45.15l-13.222,1.897c-0.255,0.069 -0.257,0.433 -0.328,0.859c-0.118,-0.375 -0.755,-1.718 -0.962,-2.006c0,0 4.005,-0.746 5.169,-0.973c2.524,-0.494 3.147,-3.145 1.101,-3.496c-4.711,-0.809 7.701,-6.982 8.242,3.719Z" style="fill:#396b97;"/><path d="M78.223,46.627l-11.988,5.889c-0.222,0.145 -0.112,0.491 -0.047,0.918c-0.228,-0.32 -1.249,-1.4 -1.536,-1.61c0,0 3.579,-1.947 4.616,-2.523c2.248,-1.249 2.021,-3.963 -0.033,-3.665c-4.731,0.687 5.167,-9.02 8.988,0.991Z" style="fill:#396b97;"/><path d="M83.956,46.279l-9.582,9.306c-0.166,0.206 0.046,0.501 0.239,0.887c-0.316,-0.234 -1.62,-0.946 -1.958,-1.057c0,0 2.802,-2.957 3.61,-3.826c1.753,-1.882 0.698,-4.393 -1.164,-3.475c-4.287,2.115 2.127,-10.175 8.855,-1.835Z" style="fill:#396b97;"/><path d="M89.238,44.355l-6.237,11.812c-0.094,0.247 0.199,0.463 0.502,0.77c-0.373,-0.125 -1.833,-0.399 -2.189,-0.401c0,0 1.751,-3.678 2.251,-4.754c1.085,-2.332 -0.694,-4.394 -2.18,-2.945c-3.424,3.336 -1.122,-10.335 7.853,-4.482Z" style="fill:#396b97;"/><path d="M93.693,40.735l-2.281,13.16c-0.014,0.265 0.332,0.379 0.715,0.578c-0.393,-0.004 -1.867,0.187 -2.206,0.295c0,0 0.529,-4.039 0.672,-5.217c0.311,-2.553 -2.018,-3.964 -2.984,-2.127c-2.225,4.231 -4.261,-9.482 6.084,-6.689Z" style="fill:#396b97;"/><path d="M96.812,35.914l1.896,13.222c0.07,0.255 0.433,0.257 0.859,0.328c-0.375,0.118 -1.718,0.755 -2.006,0.963c0,0 -0.746,-4.005 -0.973,-5.17c-0.493,-2.524 -3.145,-3.146 -3.496,-1.101c-0.809,4.712 -6.982,-7.701 3.72,-8.242Z" style="fill:#396b97;"/><path d="M98.288,30.366l5.889,11.989c0.145,0.221 0.492,0.111 0.919,0.046c-0.321,0.228 -1.401,1.249 -1.611,1.536c0,0 -1.947,-3.579 -2.523,-4.616c-1.249,-2.248 -3.963,-2.021 -3.665,0.033c0.687,4.731 -9.02,-5.167 0.991,-8.988Z" style="fill:#396b97;"/><path d="M97.904,24.634l9.306,9.581c0.206,0.166 0.501,-0.046 0.887,-0.239c-0.234,0.316 -0.946,1.62 -1.057,1.958c0,0 -2.957,-2.802 -3.826,-3.61c-1.882,-1.752 -4.393,-0.697 -3.475,1.164c2.115,4.287 -10.175,-2.127 -1.835,-8.854Z" style="fill:#396b97;"/><path d="M95.837,19.36l11.811,6.237c0.248,0.094 0.463,-0.199 0.77,-0.502c-0.124,0.373 -0.398,1.833 -0.4,2.189c0,0 -3.678,-1.751 -4.754,-2.251c-2.332,-1.085 -4.394,0.694 -2.945,2.181c3.336,3.423 -10.335,1.122 -4.482,-7.854Z" style="fill:#396b97;"/><path d="M92.216,14.905l13.161,2.281c0.264,0.014 0.378,-0.332 0.577,-0.715c-0.003,0.393 0.187,1.867 0.296,2.206c0,0 -4.04,-0.529 -5.217,-0.672c-2.553,-0.311 -3.965,2.018 -2.128,2.984c4.231,2.225 -9.482,4.261 -6.689,-6.084Z" style="fill:#396b97;"/><path d="M87.396,11.786l13.221,-1.896c0.256,-0.069 0.258,-0.433 0.328,-0.859c0.119,0.375 0.755,1.718 0.963,2.006c0,0 -4.005,0.746 -5.169,0.973c-2.524,0.493 -3.147,3.145 -1.101,3.496c4.711,0.809 -7.702,6.982 -8.242,-3.72Z" style="fill:#396b97;"/><path d="M81.848,10.31l11.988,-5.889c0.222,-0.145 0.111,-0.492 0.047,-0.918c0.228,0.32 1.249,1.4 1.535,1.61c0,0 -3.578,1.947 -4.615,2.523c-2.249,1.249 -2.021,3.963 0.033,3.665c4.731,-0.687 -5.167,9.02 -8.988,-0.991Z" style="fill:#396b97;"/><path d="M76.115,10.658l9.582,-9.306c0.166,-0.206 -0.046,-0.501 -0.24,-0.887c0.316,0.234 1.621,0.946 1.959,1.057c0,0 -2.802,2.957 -3.611,3.826c-1.752,1.882 -0.697,4.393 1.164,3.475c4.288,-2.115 -2.126,10.175 -8.854,1.835Z" style="fill:#396b97;"/></g></g><path id="jewel" d="M80.035,23.672c2.641,0 4.785,2.144 4.785,4.785c0,2.64 -2.144,4.784 -4.785,4.784c-2.64,0 -4.784,-2.144 -4.784,-4.784c0,-2.641 2.144,-4.785 4.784,-4.785Zm0,3.303c0.818,0 1.482,0.664 1.482,1.482c0,0.817 -0.664,1.481 -1.482,1.481c-0.817,0 -1.481,-0.664 -1.481,-1.481c0,-0.818 0.664,-1.482 1.481,-1.482Z" style="fill:#da3848;"/></g><g id="gwbw"><path d="M9.144,48.076c-3.216,0 -5.544,-0.504 -6.984,-1.512c-1.44,-1.008 -2.16,-2.376 -2.16,-4.104c0,-0.984 0.33,-1.914 0.99,-2.79c0.66,-0.876 1.458,-1.53 2.394,-1.962c-1.104,-0.648 -1.656,-1.68 -1.656,-3.096c0,-0.816 0.264,-1.59 0.792,-2.322c0.528,-0.732 1.212,-1.302 2.052,-1.71c-1.32,-0.504 -2.304,-1.272 -2.952,-2.304c-0.648,-1.032 -0.972,-2.256 -0.972,-3.672c0,-1.368 0.402,-2.562 1.206,-3.582c0.804,-1.02 1.884,-1.806 3.24,-2.358c1.356,-0.552 2.826,-0.828 4.41,-0.828c2.808,0 4.896,0.54 6.264,1.62c0.312,-0.408 0.84,-0.792 1.584,-1.152c0.744,-0.36 1.512,-0.54 2.304,-0.54l1.26,0l0,3.924l-3.708,0c0.36,0.768 0.54,1.584 0.54,2.448c0.024,2.184 -0.744,3.93 -2.304,5.238c-1.56,1.308 -3.696,1.962 -6.408,1.962c-1.128,0 -2.076,-0.084 -2.844,-0.252c-0.24,0.312 -0.426,0.642 -0.558,0.99c-0.132,0.348 -0.198,0.654 -0.198,0.918c0,0.792 0.282,1.332 0.846,1.62c0.564,0.288 1.578,0.432 3.042,0.432l3.852,0c4.896,0 7.344,1.776 7.344,5.328c0,1.488 -0.528,2.82 -1.584,3.996c-1.056,1.176 -2.46,2.088 -4.212,2.736c-1.752,0.648 -3.612,0.972 -5.58,0.972Zm0.252,-18.972c2.232,0 3.348,-1.524 3.348,-4.572c0,-1.56 -0.282,-2.706 -0.846,-3.438c-0.564,-0.732 -1.422,-1.098 -2.574,-1.098c-1.128,0 -1.998,0.366 -2.61,1.098c-0.612,0.732 -0.918,1.83 -0.918,3.294c0,3.144 1.2,4.716 3.6,4.716Zm0.288,16.488c1.512,0 2.82,-0.366 3.924,-1.098c1.104,-0.732 1.656,-1.746 1.656,-3.042c0,-1.032 -0.27,-1.776 -0.81,-2.232c-0.54,-0.456 -1.506,-0.684 -2.898,-0.684l-3.924,0c-0.6,0 -1.152,-0.036 -1.656,-0.108c-0.648,0.864 -0.972,1.896 -0.972,3.096c0,1.32 0.36,2.328 1.08,3.024c0.72,0.696 1.92,1.044 3.6,1.044Z" style="fill:#44a748;fill-rule:nonzero;"/><path d="M21.816,18.376l7.812,0l0,1.476l-2.88,0.432l3.204,11.196l1.188,5.004l1.188,-5.04l3.6,-13.068l2.988,0l3.6,13.068l1.152,5.076l1.296,-5.04l3.168,-11.16l-2.772,-0.468l0,-1.476l7.056,0l0,1.476l-1.98,0.468l-5.616,18.324l-2.916,0l-3.924,-13.392l-1.008,-4.536l-0.864,4.536l-3.78,13.392l-2.844,0l-5.76,-18.36l-1.908,-0.432l0,-1.476Z" style="fill:#1e3760;fill-rule:nonzero;"/><path d="M108.324,9.628l6.588,-0.792l0.072,0l1.008,0.684l0,10.62c0.648,-0.648 1.446,-1.194 2.394,-1.638c0.948,-0.444 1.974,-0.666 3.078,-0.666c2.304,0 4.182,0.81 5.634,2.43c1.452,1.62 2.178,4.098 2.178,7.434c0,2.064 -0.432,3.936 -1.296,5.616c-0.864,1.68 -2.106,3.006 -3.726,3.978c-1.62,0.972 -3.498,1.458 -5.634,1.458c-1.896,0 -3.54,-0.162 -4.932,-0.486c-1.392,-0.324 -2.28,-0.618 -2.664,-0.882l0,-25.452l-2.7,-0.432l0,-1.872Zm11.232,11.376c-0.72,0 -1.398,0.162 -2.034,0.486c-0.636,0.324 -1.146,0.69 -1.53,1.098l0,13.14c0.144,0.264 0.48,0.48 1.008,0.648c0.528,0.168 1.128,0.252 1.8,0.252c1.536,0 2.766,-0.714 3.69,-2.142c0.924,-1.428 1.386,-3.546 1.386,-6.354c0,-2.424 -0.396,-4.218 -1.188,-5.382c-0.792,-1.164 -1.836,-1.746 -3.132,-1.746Z" style="fill:#da3848;fill-rule:nonzero;"/><path d="M131.184,18.376l7.812,0l0,1.476l-2.88,0.432l3.204,11.196l1.188,5.004l1.188,-5.04l3.6,-13.068l2.988,0l3.6,13.068l1.152,5.076l1.296,-5.04l3.168,-11.16l-2.772,-0.468l0,-1.476l7.056,0l0,1.476l-1.98,0.468l-5.616,18.324l-2.916,0l-3.924,-13.392l-1.008,-4.536l-0.864,4.536l-3.78,13.392l-2.844,0l-5.76,-18.36l-1.908,-0.432l0,-1.476Z" style="fill:#1e3760;fill-rule:nonzero;"/></g></g></svg>