<?xml version="1.0" encoding="UTF-8" standalone="no"?><!DOCTYPE svg PUBLIC "-//W3C//DTD SVG 1.1//EN" "http://www.w3.org/Graphics/SVG/1.1/DTD/svg11.dtd"><svg width="100%" height="100%" viewBox="0 0 370 57" version="1.1" xmlns="http://www.w3.org/2000/svg" xmlns:xlink="http://www.w3.org/1999/xlink" xml:space="preserve" xmlns:serif="http://www.serif.com/" style="fill-rule:evenodd;clip-rule:evenodd;stroke-linejoin:round;stroke-miterlimit:2;"><g id="full-logo" serif:id="full logo"><g id="watch-parts" serif:id="watch parts"><g id="hair-spring" serif:id="hair spring"><path d="M194.644,12.357c8.886,0 16.1,7.214 16.1,16.1c0,8.885 -7.214,16.1 -16.1,16.1c-8.885,0 -16.1,-7.215 -16.1,-16.1c0,-8.886 7.215,-16.1 16.1,-16.1Zm0,1.5c8.058,0 14.6,6.542 14.6,14.6c0,8.058 -6.542,14.6 -14.6,14.6c-8.058,0 -14.6,-6.542 -14.6,-14.6c0,-8.058 6.542,-14.6 14.6,-14.6Z" style="fill:#1e3760;"/><path d="M194.644,15.357c7.23,0 13.1,5.869 13.1,13.1c0,7.23 -5.87,13.1 -13.1,13.1c-7.23,0 -13.1,-5.87 -13.1,-13.1c0,-7.231 5.87,-13.1 13.1,-13.1Zm0,1.5c6.403,0 11.6,5.197 11.6,11.6c0,6.402 -5.197,11.6 -11.6,11.6c-6.402,0 -11.6,-5.198 -11.6,-11.6c0,-6.403 5.198,-11.6 11.6,-11.6Z" style="fill:#1e3760;"/><path d="M194.644,18.357c5.575,0 10.1,4.525 10.1,10.1c0,5.574 -4.525,10.1 -10.1,10.1c-5.574,0 -10.1,-4.526 -10.1,-10.1c0,-5.575 4.526,-10.1 10.1,-10.1Zm0,1.5c4.747,0 8.6,3.853 8.6,8.6c0,4.746 -3.853,8.6 -8.6,8.6c-4.746,0 -8.6,-3.854 -8.6,-8.6c0,-4.747 3.854,-8.6 8.6,-8.6Z" style="fill:#1e3760;"/><path d="M194.644,21.357c3.919,0 7.1,3.181 7.1,7.1c0,3.918 -3.181,7.1 -7.1,7.1c-3.918,0 -7.1,-3.182 -7.1,-7.1c0,-3.919 3.182,-7.1 7.1,-7.1Zm0,1.5c3.091,0 5.6,2.509 5.6,5.6c0,3.09 -2.509,5.6 -5.6,5.6c-3.09,0 -5.6,-2.51 -5.6,-5.6c0,-3.091 2.51,-5.6 5.6,-5.6Z" style="fill:#1e3760;"/></g><g id="teeth"><clipPath id="_clip1"><path d="M194.644,-0.596c16.035,0 29.053,13.018 29.053,29.053c0,16.034 -13.018,29.052 -29.053,29.052c-16.034,0 -29.052,-13.018 -29.052,-29.052c0,-16.035 13.018,-29.053 29.052,-29.053Zm0,11.48c9.705,0 17.584,7.88 17.584,17.584c0,9.705 -7.879,17.585 -17.584,17.585c-9.705,0 -17.584,-7.88 -17.584,-17.585c0,-9.704 7.879,-17.584 17.584,-17.584Z"/></clipPath><g clip-path="url(#_clip1)"><path d="M185.442,12.582l6.237,-11.812c0.094,-0.247 -0.199,-0.463 -0.502,-0.77c0.372,0.125 1.833,0.399 2.189,0.401c0,0 -1.751,3.678 -2.252,4.754c-1.084,2.332 0.695,4.393 2.181,2.945c3.424,-3.336 1.122,10.334 -7.853,4.482Z" style="fill:#396b97;"/><path d="M180.986,16.202l2.282,-13.16c0.013,-0.265 -0.332,-0.379 -0.715,-0.578c0.393,0.004 1.867,-0.187 2.206,-0.295c0,0 -0.529,4.039 -0.673,5.217c-0.311,2.553 2.019,3.964 2.985,2.127c2.225,-4.231 4.26,9.482 -6.085,6.689Z" style="fill:#396b97;"/><path d="M177.868,21.023l-1.897,-13.222c-0.069,-0.256 -0.433,-0.257 -0.858,-0.328c0.375,-0.118 1.717,-0.755 2.006,-0.963c0,0 0.746,4.005 0.973,5.17c0.493,2.524 3.144,3.146 3.496,1.101c0.808,-4.712 6.982,7.701 -3.72,8.242Z" style="fill:#396b97;"/><path d="M176.392,26.571l-5.89,-11.989c-0.144,-0.221 -0.491,-0.111 -0.918,-0.046c0.32,-0.228 1.401,-1.249 1.611,-1.536c0,0 1.947,3.579 2.523,4.616c1.249,2.248 3.963,2.021 3.665,-0.033c-0.687,-4.731 9.02,5.167 -0.991,8.988Z" style="fill:#396b97;"/><path d="M176.776,32.303l-9.306,-9.581c-0.206,-0.166 -0.502,0.046 -0.888,0.239c0.234,-0.316 0.947,-1.62 1.058,-1.958c0,0 2.957,2.802 3.826,3.61c1.882,1.752 4.393,0.697 3.475,-1.164c-2.115,-4.287 10.175,2.127 1.835,8.854Z" style="fill:#396b97;"/><path d="M178.843,37.577l-11.811,-6.237c-0.248,-0.094 -0.463,0.199 -0.771,0.502c0.125,-0.373 0.399,-1.834 0.401,-2.189c0,0 3.678,1.751 4.754,2.251c2.332,1.085 4.394,-0.694 2.945,-2.181c-3.336,-3.423 10.335,-1.122 4.482,7.854Z" style="fill:#396b97;"/><path d="M182.464,42.032l-13.161,-2.282c-0.264,-0.013 -0.379,0.333 -0.577,0.716c0.003,-0.393 -0.187,-1.867 -0.296,-2.206c0,0 4.039,0.529 5.217,0.672c2.553,0.311 3.964,-2.018 2.128,-2.984c-4.231,-2.225 9.482,-4.261 6.689,6.084Z" style="fill:#396b97;"/><path d="M187.284,45.15l-13.222,1.897c-0.255,0.069 -0.257,0.433 -0.328,0.859c-0.118,-0.375 -0.755,-1.718 -0.962,-2.006c0,0 4.005,-0.746 5.169,-0.973c2.524,-0.494 3.147,-3.145 1.101,-3.496c-4.711,-0.809 7.701,-6.982 8.242,3.719Z" style="fill:#396b97;"/><path d="M192.832,46.627l-11.988,5.889c-0.222,0.145 -0.112,0.491 -0.047,0.918c-0.228,-0.32 -1.249,-1.4 -1.536,-1.61c0,0 3.579,-1.947 4.616,-2.523c2.248,-1.249 2.021,-3.963 -0.033,-3.665c-4.731,0.687 5.167,-9.02 8.988,0.991Z" style="fill:#396b97;"/><path d="M198.565,46.279l-9.582,9.306c-0.166,0.206 0.046,0.501 0.239,0.887c-0.316,-0.234 -1.62,-0.946 -1.958,-1.057c0,0 2.802,-2.957 3.61,-3.826c1.753,-1.882 0.698,-4.393 -1.164,-3.475c-4.287,2.115 2.127,-10.175 8.855,-1.835Z" style="fill:#396b97;"/><path d="M203.847,44.355l-6.237,11.812c-0.094,0.247 0.199,0.463 0.502,0.77c-0.373,-0.125 -1.833,-0.399 -2.189,-0.401c0,0 1.751,-3.678 2.251,-4.754c1.085,-2.332 -0.694,-4.394 -2.18,-2.945c-3.424,3.336 -1.122,-10.335 7.853,-4.482Z" style="fill:#396b97;"/><path d="M208.302,40.735l-2.281,13.16c-0.014,0.265 0.332,0.379 0.715,0.578c-0.393,-0.004 -1.867,0.187 -2.206,0.295c0,0 0.529,-4.039 0.672,-5.217c0.311,-2.553 -2.018,-3.964 -2.984,-2.127c-2.225,4.231 -4.261,-9.482 6.084,-6.689Z" style="fill:#396b97;"/><path d="M211.421,35.914l1.896,13.222c0.07,0.255 0.433,0.257 0.859,0.328c-0.375,0.118 -1.718,0.755 -2.006,0.963c0,0 -0.746,-4.005 -0.973,-5.17c-0.493,-2.524 -3.145,-3.146 -3.496,-1.101c-0.809,4.712 -6.982,-7.701 3.72,-8.242Z" style="fill:#396b97;"/><path d="M212.897,30.366l5.889,11.989c0.145,0.221 0.492,0.111 0.919,0.046c-0.321,0.228 -1.401,1.249 -1.611,1.536c0,0 -1.947,-3.579 -2.523,-4.616c-1.249,-2.248 -3.963,-2.021 -3.665,0.033c0.687,4.731 -9.02,-5.167 0.991,-8.988Z" style="fill:#396b97;"/><path d="M212.513,24.634l9.306,9.581c0.206,0.166 0.501,-0.046 0.887,-0.239c-0.234,0.316 -0.946,1.62 -1.057,1.958c0,0 -2.957,-2.802 -3.826,-3.61c-1.882,-1.752 -4.393,-0.697 -3.475,1.164c2.115,4.287 -10.175,-2.127 -1.835,-8.854Z" style="fill:#396b97;"/><path d="M210.446,19.36l11.811,6.237c0.248,0.094 0.463,-0.199 0.77,-0.502c-0.124,0.373 -0.398,1.833 -0.4,2.189c0,0 -3.678,-1.751 -4.754,-2.251c-2.332,-1.085 -4.394,0.694 -2.945,2.181c3.336,3.423 -10.335,1.122 -4.482,-7.854Z" style="fill:#396b97;"/><path d="M206.825,14.905l13.161,2.281c0.264,0.014 0.378,-0.332 0.577,-0.715c-0.003,0.393 0.187,1.867 0.296,2.206c0,0 -4.04,-0.529 -5.217,-0.672c-2.553,-0.311 -3.965,2.018 -2.128,2.984c4.231,2.225 -9.482,4.261 -6.689,-6.084Z" style="fill:#396b97;"/><path d="M202.005,11.786l13.221,-1.896c0.256,-0.069 0.258,-0.433 0.328,-0.859c0.119,0.375 0.755,1.718 0.963,2.006c0,0 -4.005,0.746 -5.169,0.973c-2.524,0.493 -3.147,3.145 -1.101,3.496c4.711,0.809 -7.702,6.982 -8.242,-3.72Z" style="fill:#396b97;"/><path d="M196.457,10.31l11.988,-5.889c0.222,-0.145 0.111,-0.492 0.047,-0.918c0.228,0.32 1.249,1.4 1.535,1.61c0,0 -3.578,1.947 -4.615,2.523c-2.249,1.249 -2.021,3.963 0.033,3.665c4.731,-0.687 -5.167,9.02 -8.988,-0.991Z" style="fill:#396b97;"/><path d="M190.724,10.658l9.582,-9.306c0.166,-0.206 -0.046,-0.501 -0.24,-0.887c0.316,0.234 1.621,0.946 1.959,1.057c0,0 -2.802,2.957 -3.611,3.826c-1.752,1.882 -0.697,4.393 1.164,3.475c4.288,-2.115 -2.126,10.175 -8.854,1.835Z" style="fill:#396b97;"/></g></g><path id="jewel" d="M194.644,23.672c2.641,0 4.785,2.144 4.785,4.785c0,2.64 -2.144,4.784 -4.785,4.784c-2.64,0 -4.784,-2.144 -4.784,-4.784c0,-2.641 2.144,-4.785 4.784,-4.785Zm0,3.303c0.818,0 1.482,0.664 1.482,1.482c0,0.817 -0.664,1.481 -1.482,1.481c-0.817,0 -1.481,-0.664 -1.481,-1.481c0,-0.818 0.664,-1.482 1.481,-1.482Z" style="fill:#da3848;"/></g><g id="goodwatchbadwatch"><path d="M7.62,44.806c-2.68,0 -4.62,-0.42 -5.82,-1.26c-1.2,-0.84 -1.8,-1.98 -1.8,-3.42c0,-0.82 0.275,-1.595 0.825,-2.325c0.55,-0.73 1.215,-1.275 1.995,-1.635c-0.92,-0.54 -1.38,-1.4 -1.38,-2.58c0,-0.68 0.22,-1.325 0.66,-1.935c0.44,-0.61 1.01,-1.085 1.71,-1.425c-1.1,-0.42 -1.92,-1.06 -2.46,-1.92c-0.54,-0.86 -0.81,-1.88 -0.81,-3.06c0,-1.14 0.335,-2.135 1.005,-2.985c0.67,-0.85 1.57,-1.505 2.7,-1.965c1.13,-0.46 2.355,-0.69 3.675,-0.69c2.34,0 4.08,0.45 5.22,1.35c0.26,-0.34 0.7,-0.66 1.32,-0.96c0.62,-0.3 1.26,-0.45 1.92,-0.45l1.05,0l0,3.27l-3.09,0c0.3,0.64 0.45,1.32 0.45,2.04c0.02,1.82 -0.62,3.275 -1.92,4.365c-1.3,1.09 -3.08,1.635 -5.34,1.635c-0.94,0 -1.73,-0.07 -2.37,-0.21c-0.2,0.26 -0.355,0.535 -0.465,0.825c-0.11,0.29 -0.165,0.545 -0.165,0.765c0,0.66 0.235,1.11 0.705,1.35c0.47,0.24 1.315,0.36 2.535,0.36l3.21,0c4.08,0 6.12,1.48 6.12,4.44c0,1.24 -0.44,2.35 -1.32,3.33c-0.88,0.98 -2.05,1.74 -3.51,2.28c-1.46,0.54 -3.01,0.81 -4.65,0.81Zm0.21,-15.81c1.86,0 2.79,-1.27 2.79,-3.81c0,-1.3 -0.235,-2.255 -0.705,-2.865c-0.47,-0.61 -1.185,-0.915 -2.145,-0.915c-0.94,0 -1.665,0.305 -2.175,0.915c-0.51,0.61 -0.765,1.525 -0.765,2.745c0,2.62 1,3.93 3,3.93Zm0.24,13.74c1.26,0 2.35,-0.305 3.27,-0.915c0.92,-0.61 1.38,-1.455 1.38,-2.535c0,-0.86 -0.225,-1.48 -0.675,-1.86c-0.45,-0.38 -1.255,-0.57 -2.415,-0.57l-3.27,0c-0.5,0 -0.96,-0.03 -1.38,-0.09c-0.54,0.72 -0.81,1.58 -0.81,2.58c0,1.1 0.3,1.94 0.9,2.52c0.6,0.58 1.6,0.87 3,0.87Z" style="fill:#44a748;fill-rule:nonzero;"/><path d="M19.02,28.396c0,-1.88 0.375,-3.48 1.125,-4.8c0.75,-1.32 1.755,-2.315 3.015,-2.985c1.26,-0.67 2.63,-1.005 4.11,-1.005c2.52,0 4.465,0.775 5.835,2.325c1.37,1.55 2.055,3.655 2.055,6.315c0,1.9 -0.375,3.515 -1.125,4.845c-0.75,1.33 -1.75,2.32 -3,2.97c-1.25,0.65 -2.625,0.975 -4.125,0.975c-2.5,0 -4.44,-0.775 -5.82,-2.325c-1.38,-1.55 -2.07,-3.655 -2.07,-6.315Zm8.13,6.69c2.26,0 3.39,-2.18 3.39,-6.54c0,-2.28 -0.27,-4.015 -0.81,-5.205c-0.54,-1.19 -1.42,-1.785 -2.64,-1.785c-2.32,0 -3.48,2.18 -3.48,6.54c0,2.28 0.285,4.015 0.855,5.205c0.57,1.19 1.465,1.785 2.685,1.785Z" style="fill:#44a748;fill-rule:nonzero;"/><path d="M37.89,28.396c0,-1.88 0.375,-3.48 1.125,-4.8c0.75,-1.32 1.755,-2.315 3.015,-2.985c1.26,-0.67 2.63,-1.005 4.11,-1.005c2.52,0 4.465,0.775 5.835,2.325c1.37,1.55 2.055,3.655 2.055,6.315c0,1.9 -0.375,3.515 -1.125,4.845c-0.75,1.33 -1.75,2.32 -3,2.97c-1.25,0.65 -2.625,0.975 -4.125,0.975c-2.5,0 -4.44,-0.775 -5.82,-2.325c-1.38,-1.55 -2.07,-3.655 -2.07,-6.315Zm8.13,6.69c2.26,0 3.39,-2.18 3.39,-6.54c0,-2.28 -0.27,-4.015 -0.81,-5.205c-0.54,-1.19 -1.42,-1.785 -2.64,-1.785c-2.32,0 -3.48,2.18 -3.48,6.54c0,2.28 0.285,4.015 0.855,5.205c0.57,1.19 1.465,1.785 2.685,1.785Z" style="fill:#44a748;fill-rule:nonzero;"/><path d="M63.03,37.036c-1.24,0 -2.35,-0.295 -3.33,-0.885c-0.98,-0.59 -1.76,-1.505 -2.34,-2.745c-0.58,-1.24 -0.87,-2.79 -0.87,-4.65c0,-1.68 0.345,-3.215 1.035,-4.605c0.69,-1.39 1.705,-2.495 3.045,-3.315c1.34,-0.82 2.95,-1.23 4.83,-1.23c0.76,0 1.48,0.08 2.16,0.24l0,-5.07l-2.94,-0.42l0,-1.65l6.18,-0.6l0.09,0l0.84,0.63l0,22.14l1.62,0l0,1.71c-1.44,0.3 -2.63,0.45 -3.57,0.45c-0.64,0 -1.095,-0.105 -1.365,-0.315c-0.27,-0.21 -0.405,-0.625 -0.405,-1.245l0,-0.84c-0.52,0.7 -1.23,1.275 -2.13,1.725c-0.9,0.45 -1.85,0.675 -2.85,0.675Zm1.56,-2.49c0.66,0 1.245,-0.135 1.755,-0.405c0.51,-0.27 0.915,-0.595 1.215,-0.975l0,-10.92c-0.14,-0.2 -0.435,-0.37 -0.885,-0.51c-0.45,-0.14 -0.935,-0.21 -1.455,-0.21c-1.28,0 -2.305,0.555 -3.075,1.665c-0.77,1.11 -1.155,2.885 -1.155,5.325c0,2.04 0.33,3.555 0.99,4.545c0.66,0.99 1.53,1.485 2.61,1.485Z" style="fill:#44a748;fill-rule:nonzero;"/><path d="M74.1,20.056l6.51,0l0,1.23l-2.4,0.36l2.67,9.33l0.99,4.17l0.99,-4.2l3,-10.89l2.49,0l3,10.89l0.96,4.23l1.08,-4.2l2.64,-9.3l-2.31,-0.39l0,-1.23l5.88,0l0,1.23l-1.65,0.39l-4.68,15.27l-2.43,0l-3.27,-11.16l-0.84,-3.78l-0.72,3.78l-3.15,11.16l-2.37,0l-4.8,-15.3l-1.59,-0.36l0,-1.23Z" style="fill:#1e3760;fill-rule:nonzero;"/><path d="M100.86,32.326c0,-1.94 0.96,-3.345 2.88,-4.215c1.92,-0.87 4.31,-1.335 7.17,-1.395l0,-0.93c0,-1.02 -0.105,-1.825 -0.315,-2.415c-0.21,-0.59 -0.575,-1.02 -1.095,-1.29c-0.52,-0.27 -1.25,-0.405 -2.19,-0.405c-1.02,0 -1.945,0.155 -2.775,0.465c-0.83,0.31 -1.635,0.685 -2.415,1.125l-0.66,-1.32c0.22,-0.2 0.68,-0.48 1.38,-0.84c0.7,-0.36 1.5,-0.68 2.4,-0.96c0.9,-0.28 1.77,-0.42 2.61,-0.42c1.36,0 2.435,0.19 3.225,0.57c0.79,0.38 1.36,0.99 1.71,1.83c0.35,0.84 0.525,1.97 0.525,3.39l0,9.9l1.86,0l0,1.11c-1.1,0.3 -2.03,0.45 -2.79,0.45c-0.48,0 -0.81,-0.075 -0.99,-0.225c-0.18,-0.15 -0.27,-0.495 -0.27,-1.035l0,-1.11c-0.72,0.64 -1.505,1.205 -2.355,1.695c-0.85,0.49 -1.815,0.735 -2.895,0.735c-1.44,0 -2.635,-0.4 -3.585,-1.2c-0.95,-0.8 -1.425,-1.97 -1.425,-3.51Zm5.91,2.94c0.56,0 1.23,-0.18 2.01,-0.54c0.78,-0.36 1.49,-0.79 2.13,-1.29l0,-5.31c-2.42,0.02 -4.255,0.38 -5.505,1.08c-1.25,0.7 -1.875,1.64 -1.875,2.82c0,1.14 0.29,1.965 0.87,2.475c0.58,0.51 1.37,0.765 2.37,0.765Z" style="fill:#1e3760;fill-rule:nonzero;"/><path d="M122.58,37.036c-1.06,0 -1.86,-0.245 -2.4,-0.735c-0.54,-0.49 -0.81,-1.365 -0.81,-2.625l0,-11.85l-2.28,0l0,-1.17c1,-0.22 1.58,-0.38 1.74,-0.48c0.3,-0.16 0.52,-0.47 0.66,-0.93c0.12,-0.3 0.28,-0.84 0.48,-1.62c0.2,-0.78 0.35,-1.39 0.45,-1.83l1.38,0l0,4.26l5.31,0l0,1.77l-5.31,0l0,9.72c0,1.16 0.04,1.975 0.12,2.445c0.08,0.47 0.24,0.775 0.48,0.915c0.24,0.14 0.66,0.21 1.26,0.21c0.58,0 1.23,-0.08 1.95,-0.24c0.72,-0.16 1.26,-0.33 1.62,-0.51l0.39,1.14c-0.46,0.36 -1.22,0.705 -2.28,1.035c-1.06,0.33 -1.98,0.495 -2.76,0.495Z" style="fill:#1e3760;fill-rule:nonzero;"/><path d="M129.24,28.486c0,-1.62 0.315,-3.105 0.945,-4.455c0.63,-1.35 1.57,-2.425 2.82,-3.225c1.25,-0.8 2.775,-1.2 4.575,-1.2c0.78,0 1.54,0.095 2.28,0.285c0.74,0.19 1.38,0.395 1.92,0.615l-0.12,4.29l-1.5,0l-0.63,-2.88c-0.12,-0.6 -0.98,-0.9 -2.58,-0.9c-1.56,0 -2.805,0.6 -3.735,1.8c-0.93,1.2 -1.395,2.84 -1.395,4.92c0,2.48 0.5,4.36 1.5,5.64c1,1.28 2.3,1.92 3.9,1.92c0.84,0 1.655,-0.14 2.445,-0.42c0.79,-0.28 1.445,-0.6 1.965,-0.96l0.48,0.99c-0.58,0.58 -1.38,1.08 -2.4,1.5c-1.02,0.42 -2.03,0.63 -3.03,0.63c-1.58,0 -2.93,-0.375 -4.05,-1.125c-1.12,-0.75 -1.965,-1.77 -2.535,-3.06c-0.57,-1.29 -0.855,-2.745 -0.855,-4.365Z" style="fill:#1e3760;fill-rule:nonzero;"/><path d="M146.58,14.026l-2.67,-0.27l0,-1.11l4.44,-0.51l0.06,0l0.57,0.39l0,7.14l-0.06,2.49c0.64,-0.58 1.54,-1.14 2.7,-1.68c1.16,-0.54 2.3,-0.81 3.42,-0.81c1.26,0 2.24,0.24 2.94,0.72c0.7,0.48 1.19,1.225 1.47,2.235c0.28,1.01 0.42,2.375 0.42,4.095l0,8.46l2.19,0.24l0,1.29l-6.72,0l0,-1.29l2.1,-0.24l0,-8.49c0,-1.28 -0.085,-2.28 -0.255,-3c-0.17,-0.72 -0.505,-1.26 -1.005,-1.62c-0.5,-0.36 -1.23,-0.54 -2.19,-0.54c-0.8,0 -1.66,0.195 -2.58,0.585c-0.92,0.39 -1.73,0.855 -2.43,1.395l0,11.67l2.22,0.24l0,1.29l-6.51,0l0,-1.29l1.89,-0.21l0,-21.18Z" style="fill:#1e3760;fill-rule:nonzero;"/><path d="M227.04,12.766l5.49,-0.66l0.06,0l0.84,0.57l0,8.85c0.54,-0.54 1.205,-0.995 1.995,-1.365c0.79,-0.37 1.645,-0.555 2.565,-0.555c1.92,0 3.485,0.675 4.695,2.025c1.21,1.35 1.815,3.415 1.815,6.195c0,1.72 -0.36,3.28 -1.08,4.68c-0.72,1.4 -1.755,2.505 -3.105,3.315c-1.35,0.81 -2.915,1.215 -4.695,1.215c-1.58,0 -2.95,-0.135 -4.11,-0.405c-1.16,-0.27 -1.9,-0.515 -2.22,-0.735l0,-21.21l-2.25,-0.36l0,-1.56Zm9.36,9.48c-0.6,0 -1.165,0.135 -1.695,0.405c-0.53,0.27 -0.955,0.575 -1.275,0.915l0,10.95c0.12,0.22 0.4,0.4 0.84,0.54c0.44,0.14 0.94,0.21 1.5,0.21c1.28,0 2.305,-0.595 3.075,-1.785c0.77,-1.19 1.155,-2.955 1.155,-5.295c0,-2.02 -0.33,-3.515 -0.99,-4.485c-0.66,-0.97 -1.53,-1.455 -2.61,-1.455Z" style="fill:#da3848;fill-rule:nonzero;"/><path d="M246.6,32.026c0,-1.82 0.915,-3.19 2.745,-4.11c1.83,-0.92 4.195,-1.39 7.095,-1.41l0,-0.69c0,-0.82 -0.085,-1.46 -0.255,-1.92c-0.17,-0.46 -0.48,-0.805 -0.93,-1.035c-0.45,-0.23 -1.105,-0.345 -1.965,-0.345c-0.98,0 -1.86,0.125 -2.64,0.375c-0.78,0.25 -1.59,0.575 -2.43,0.975l-0.93,-1.92c0.3,-0.26 0.805,-0.57 1.515,-0.93c0.71,-0.36 1.555,-0.675 2.535,-0.945c0.98,-0.27 1.99,-0.405 3.03,-0.405c1.54,0 2.745,0.2 3.615,0.6c0.87,0.4 1.495,1.04 1.875,1.92c0.38,0.88 0.57,2.06 0.57,3.54l0,9.18l1.62,0l0,1.68c-0.4,0.1 -0.97,0.2 -1.71,0.3c-0.74,0.1 -1.39,0.15 -1.95,0.15c-0.68,0 -1.135,-0.1 -1.365,-0.3c-0.23,-0.2 -0.345,-0.61 -0.345,-1.23l0,-0.81c-0.54,0.6 -1.24,1.14 -2.1,1.62c-0.86,0.48 -1.83,0.72 -2.91,0.72c-0.92,0 -1.765,-0.195 -2.535,-0.585c-0.77,-0.39 -1.385,-0.96 -1.845,-1.71c-0.46,-0.75 -0.69,-1.655 -0.69,-2.715Zm6.99,2.52c0.42,0 0.9,-0.125 1.44,-0.375c0.54,-0.25 1.01,-0.555 1.41,-0.915l0,-4.92c-1.8,0 -3.145,0.305 -4.035,0.915c-0.89,0.61 -1.335,1.395 -1.335,2.355c0,0.96 0.225,1.69 0.675,2.19c0.45,0.5 1.065,0.75 1.845,0.75Z" style="fill:#da3848;fill-rule:nonzero;"/><path d="M270.18,37.036c-1.24,0 -2.35,-0.295 -3.33,-0.885c-0.98,-0.59 -1.76,-1.505 -2.34,-2.745c-0.58,-1.24 -0.87,-2.79 -0.87,-4.65c0,-1.68 0.345,-3.215 1.035,-4.605c0.69,-1.39 1.705,-2.495 3.045,-3.315c1.34,-0.82 2.95,-1.23 4.83,-1.23c0.76,0 1.48,0.08 2.16,0.24l0,-5.07l-2.94,-0.42l0,-1.65l6.18,-0.6l0.09,0l0.84,0.63l0,22.14l1.62,0l0,1.71c-1.44,0.3 -2.63,0.45 -3.57,0.45c-0.64,0 -1.095,-0.105 -1.365,-0.315c-0.27,-0.21 -0.405,-0.625 -0.405,-1.245l0,-0.84c-0.52,0.7 -1.23,1.275 -2.13,1.725c-0.9,0.45 -1.85,0.675 -2.85,0.675Zm1.56,-2.49c0.66,0 1.245,-0.135 1.755,-0.405c0.51,-0.27 0.915,-0.595 1.215,-0.975l0,-10.92c-0.14,-0.2 -0.435,-0.37 -0.885,-0.51c-0.45,-0.14 -0.935,-0.21 -1.455,-0.21c-1.28,0 -2.305,0.555 -3.075,1.665c-0.77,1.11 -1.155,2.885 -1.155,5.325c0,2.04 0.33,3.555 0.99,4.545c0.66,0.99 1.53,1.485 2.61,1.485Z" style="fill:#da3848;fill-rule:nonzero;"/><path d="M281.25,20.056l6.51,0l0,1.23l-2.4,0.36l2.67,9.33l0.99,4.17l0.99,-4.2l3,-10.89l2.49,0l3,10.89l0.96,4.23l1.08,-4.2l2.64,-9.3l-2.31,-0.39l0,-1.23l5.88,0l0,1.23l-1.65,0.39l-4.68,15.27l-2.43,0l-3.27,-11.16l-0.84,-3.78l-0.72,3.78l-3.15,11.16l-2.37,0l-4.8,-15.3l-1.59,-0.36l0,-1.23Z" style="fill:#1e3760;fill-rule:nonzero;"/><path d="M308.01,32.326c0,-1.94 0.96,-3.345 2.88,-4.215c1.92,-0.87 4.31,-1.335 7.17,-1.395l0,-0.93c0,-1.02 -0.105,-1.825 -0.315,-2.415c-0.21,-0.59 -0.575,-1.02 -1.095,-1.29c-0.52,-0.27 -1.25,-0.405 -2.19,-0.405c-1.02,0 -1.945,0.155 -2.775,0.465c-0.83,0.31 -1.635,0.685 -2.415,1.125l-0.66,-1.32c0.22,-0.2 0.68,-0.48 1.38,-0.84c0.7,-0.36 1.5,-0.68 2.4,-0.96c0.9,-0.28 1.77,-0.42 2.61,-0.42c1.36,0 2.435,0.19 3.225,0.57c0.79,0.38 1.36,0.99 1.71,1.83c0.35,0.84 0.525,1.97 0.525,3.39l0,9.9l1.86,0l0,1.11c-1.1,0.3 -2.03,0.45 -2.79,0.45c-0.48,0 -0.81,-0.075 -0.99,-0.225c-0.18,-0.15 -0.27,-0.495 -0.27,-1.035l0,-1.11c-0.72,0.64 -1.505,1.205 -2.355,1.695c-0.85,0.49 -1.815,0.735 -2.895,0.735c-1.44,0 -2.635,-0.4 -3.585,-1.2c-0.95,-0.8 -1.425,-1.97 -1.425,-3.51Zm5.91,2.94c0.56,0 1.23,-0.18 2.01,-0.54c0.78,-0.36 1.49,-0.79 2.13,-1.29l0,-5.31c-2.42,0.02 -4.255,0.38 -5.505,1.08c-1.25,0.7 -1.875,1.64 -1.875,2.82c0,1.14 0.29,1.965 0.87,2.475c0.58,0.51 1.37,0.765 2.37,0.765Z" style="fill:#1e3760;fill-rule:nonzero;"/><path d="M329.73,37.036c-1.06,0 -1.86,-0.245 -2.4,-0.735c-0.54,-0.49 -0.81,-1.365 -0.81,-2.625l0,-11.85l-2.28,0l0,-1.17c1,-0.22 1.58,-0.38 1.74,-0.48c0.3,-0.16 0.52,-0.47 0.66,-0.93c0.12,-0.3 0.28,-0.84 0.48,-1.62c0.2,-0.78 0.35,-1.39 0.45,-1.83l1.38,0l0,4.26l5.31,0l0,1.77l-5.31,0l0,9.72c0,1.16 0.04,1.975 0.12,2.445c0.08,0.47 0.24,0.775 0.48,0.915c0.24,0.14 0.66,0.21 1.26,0.21c0.58,0 1.23,-0.08 1.95,-0.24c0.72,-0.16 1.26,-0.33 1.62,-0.51l0.39,1.14c-0.46,0.36 -1.22,0.705 -2.28,1.035c-1.06,0.33 -1.98,0.495 -2.76,0.495Z" style="fill:#1e3760;fill-rule:nonzero;"/><path d="M336.39,28.486c0,-1.62 0.315,-3.105 0.945,-4.455c0.63,-1.35 1.57,-2.425 2.82,-3.225c1.25,-0.8 2.775,-1.2 4.575,-1.2c0.78,0 1.54,0.095 2.28,0.285c0.74,0.19 1.38,0.395 1.92,0.615l-0.12,4.29l-1.5,0l-0.63,-2.88c-0.12,-0.6 -0.98,-0.9 -2.58,-0.9c-1.56,0 -2.805,0.6 -3.735,1.8c-0.93,1.2 -1.395,2.84 -1.395,4.92c0,2.48 0.5,4.36 1.5,5.64c1,1.28 2.3,1.92 3.9,1.92c0.84,0 1.655,-0.14 2.445,-0.42c0.79,-0.28 1.445,-0.6 1.965,-0.96l0.48,0.99c-0.58,0.58 -1.38,1.08 -2.4,1.5c-1.02,0.42 -2.03,0.63 -3.03,0.63c-1.58,0 -2.93,-0.375 -4.05,-1.125c-1.12,-0.75 -1.965,-1.77 -2.535,-3.06c-0.57,-1.29 -0.855,-2.745 -0.855,-4.365Z" style="fill:#1e3760;fill-rule:nonzero;"/><path d="M353.73,14.026l-2.67,-0.27l0,-1.11l4.44,-0.51l0.06,0l0.57,0.39l0,7.14l-0.06,2.49c0.64,-0.58 1.54,-1.14 2.7,-1.68c1.16,-0.54 2.3,-0.81 3.42,-0.81c1.26,0 2.24,0.24 2.94,0.72c0.7,0.48 1.19,1.225 1.47,2.235c0.28,1.01 0.42,2.375 0.42,4.095l0,8.46l2.19,0.24l0,1.29l-6.72,0l0,-1.29l2.1,-0.24l0,-8.49c0,-1.28 -0.085,-2.28 -0.255,-3c-0.17,-0.72 -0.505,-1.26 -1.005,-1.62c-0.5,-0.36 -1.23,-0.54 -2.19,-0.54c-0.8,0 -1.66,0.195 -2.58,0.585c-0.92,0.39 -1.73,0.855 -2.43,1.395l0,11.67l2.22,0.24l0,1.29l-6.51,0l0,-1.29l1.89,-0.21l0,-21.18Z" style="fill:#1e3760;fill-rule:nonzero;"/></g></g></svg>