<?xml version="1.0" encoding="UTF-8" standalone="no"?><!DOCTYPE svg PUBLIC "-//W3C//DTD SVG 1.1//EN" "http://www.w3.org/Graphics/SVG/1.1/DTD/svg11.dtd"><svg width="100%" height="100%" viewBox="0 0 225 59" version="1.1" xmlns="http://www.w3.org/2000/svg" xmlns:xlink="http://www.w3.org/1999/xlink" xml:space="preserve" xmlns:serif="http://www.serif.com/" style="fill-rule:evenodd;clip-rule:evenodd;stroke-linejoin:round;stroke-miterlimit:2;"><rect id="Artboard1" x="0" y="0" width="224.926" height="58.981" style="fill:none;"/><clipPath id="_clip1"><rect x="0" y="0" width="224.926" height="58.981"/></clipPath><g clip-path="url(#_clip1)"><g id="medium-logo" serif:id="medium logo"><g id="icon"><clipPath id="_clip2"><rect x="165.665" y="-0.659" width="59.261" height="59.5"/></clipPath><g clip-path="url(#_clip2)"><g id="hair-spring" serif:id="hair spring"><path d="M165.625,25.158c18.566,0 33.638,15.072 33.638,33.637c0,18.565 -15.072,33.638 -33.638,33.638c-18.565,0 -33.637,-15.073 -33.637,-33.638c0,-18.565 15.072,-33.637 33.637,-33.637Zm0,3.133c16.836,0 30.504,13.669 30.504,30.504c0,16.836 -13.668,30.504 -30.504,30.504c-16.835,0 -30.503,-13.668 -30.503,-30.504c0,-16.835 13.668,-30.504 30.503,-30.504Z" style="fill:#1e3760;"/><path d="M165.625,31.425c15.106,0 27.37,12.264 27.37,27.37c0,15.106 -12.264,27.37 -27.37,27.37c-15.105,0 -27.369,-12.264 -27.369,-27.37c0,-15.106 12.264,-27.37 27.369,-27.37Zm0,3.134c13.377,0 24.236,10.86 24.236,24.236c0,13.376 -10.859,24.236 -24.236,24.236c-13.376,0 -24.235,-10.86 -24.235,-24.236c0,-13.376 10.859,-24.236 24.235,-24.236Z" style="fill:#1e3760;"/><path d="M165.625,37.693c11.647,0 21.102,9.456 21.102,21.102c0,11.647 -9.455,21.102 -21.102,21.102c-11.646,0 -21.101,-9.455 -21.101,-21.102c0,-11.646 9.455,-21.102 21.101,-21.102Zm0,3.134c9.917,0 17.968,8.051 17.968,17.968c0,9.917 -8.051,17.968 -17.968,17.968c-9.916,0 -17.968,-8.051 -17.968,-17.968c0,-9.917 8.052,-17.968 17.968,-17.968Z" style="fill:#1e3760;"/><path d="M165.625,43.961c8.188,0 14.834,6.647 14.834,14.834c0,8.187 -6.646,14.834 -14.834,14.834c-8.187,0 -14.834,-6.647 -14.834,-14.834c0,-8.187 6.647,-14.834 14.834,-14.834Zm0,3.134c6.458,0 11.701,5.243 11.701,11.7c0,6.458 -5.243,11.7 -11.701,11.7c-6.457,0 -11.7,-5.242 -11.7,-11.7c0,-6.457 5.243,-11.7 11.7,-11.7Z" style="fill:#1e3760;"/></g><g id="teeth"><clipPath id="_clip3"><path d="M165.625,-1.905c33.502,0 60.701,27.199 60.701,60.7c0,33.502 -27.199,60.7 -60.701,60.7c-33.501,0 -60.7,-27.198 -60.7,-60.7c0,-33.501 27.199,-60.7 60.7,-60.7Zm0,23.987c20.277,0 36.739,16.462 36.739,36.738c0,20.277 -16.462,36.739 -36.739,36.739c-20.276,0 -36.738,-16.462 -36.738,-36.739c0,-20.276 16.462,-36.738 36.738,-36.738Z"/></clipPath><g clip-path="url(#_clip3)"><path d="M146.398,25.628l13.031,-24.678c0.197,-0.517 -0.415,-0.967 -1.049,-1.609c0.779,0.261 3.831,0.834 4.574,0.837c0,0 -3.658,7.685 -4.704,9.932c-2.266,4.873 1.451,9.181 4.557,6.154c7.153,-6.97 2.344,21.592 -16.409,9.364Z" style="fill:#396b97;"/><path d="M137.09,33.193l4.767,-27.497c0.028,-0.552 -0.694,-0.791 -1.495,-1.206c0.822,0.007 3.901,-0.391 4.609,-0.618c0,0 -1.104,8.44 -1.404,10.9c-0.65,5.334 4.216,8.283 6.235,4.445c4.649,-8.84 8.901,19.811 -12.712,13.976Z" style="fill:#396b97;"/><path d="M130.575,43.264l-3.963,-27.624c-0.145,-0.534 -0.905,-0.538 -1.795,-0.686c0.784,-0.246 3.59,-1.577 4.193,-2.011c0,0 1.557,8.368 2.033,10.801c1.03,5.273 6.569,6.574 7.303,2.3c1.69,-9.844 14.588,16.09 -7.771,17.22Z" style="fill:#396b97;"/><path d="M127.491,54.855l-12.305,-25.047c-0.303,-0.463 -1.027,-0.232 -1.919,-0.097c0.669,-0.477 2.926,-2.61 3.366,-3.209c0,0 4.067,7.477 5.271,9.644c2.609,4.697 8.279,4.222 7.656,-0.069c-1.434,-9.885 18.846,10.795 -2.069,18.778Z" style="fill:#396b97;"/><path d="M128.293,66.832l-19.443,-20.019c-0.431,-0.347 -1.048,0.097 -1.854,0.501c0.488,-0.66 1.976,-3.386 2.209,-4.092c0,0 6.178,5.854 7.993,7.543c3.933,3.661 9.179,1.457 7.261,-2.432c-4.419,-8.957 21.259,4.443 3.834,18.499Z" style="fill:#396b97;"/><path d="M132.611,77.851l-24.677,-13.031c-0.517,-0.197 -0.967,0.415 -1.609,1.049c0.261,-0.779 0.833,-3.831 0.836,-4.574c0,0 7.686,3.658 9.933,4.703c4.872,2.267 9.18,-1.45 6.154,-4.556c-6.971,-7.153 21.592,-2.344 9.363,16.409Z" style="fill:#396b97;"/><path d="M202.958,50.808l19.443,20.019c0.431,0.347 1.048,-0.096 1.854,-0.5c-0.489,0.66 -1.976,3.385 -2.209,4.091c0,0 -6.179,-5.854 -7.993,-7.543c-3.933,-3.661 -9.179,-1.457 -7.261,2.432c4.419,8.957 -21.259,-4.443 -3.834,-18.499Z" style="fill:#396b97;"/><path d="M198.639,39.79l24.678,13.031c0.517,0.197 0.967,-0.416 1.609,-1.049c-0.261,0.779 -0.833,3.831 -0.837,4.574c0,0 -7.685,-3.659 -9.932,-4.704c-4.872,-2.267 -9.18,1.451 -6.154,4.556c6.97,7.154 -21.592,2.344 -9.364,-16.408Z" style="fill:#396b97;"/><path d="M191.075,30.481l27.496,4.768c0.553,0.027 0.791,-0.694 1.206,-1.495c-0.007,0.821 0.391,3.901 0.618,4.609c0,0 -8.439,-1.105 -10.9,-1.405c-5.334,-0.649 -8.283,4.217 -4.445,6.236c8.84,4.649 -19.81,8.901 -13.975,-12.713Z" style="fill:#396b97;"/><path d="M181.003,23.966l27.624,-3.962c0.534,-0.145 0.539,-0.905 0.686,-1.795c0.246,0.784 1.577,3.589 2.011,4.192c0,0 -8.367,1.558 -10.8,2.033c-5.274,1.03 -6.574,6.57 -2.301,7.304c9.844,1.69 -16.09,14.587 -17.22,-7.772Z" style="fill:#396b97;"/><path d="M169.412,20.882l25.047,-12.305c0.464,-0.302 0.233,-1.026 0.098,-1.918c0.476,0.669 2.609,2.926 3.208,3.365c0,0 -7.477,4.068 -9.644,5.271c-4.697,2.61 -4.222,8.28 0.07,7.657c9.884,-1.435 -10.795,18.846 -18.779,-2.07Z" style="fill:#396b97;"/><path d="M157.435,21.609l20.019,-19.442c0.347,-0.431 -0.096,-1.049 -0.5,-1.855c0.66,0.489 3.385,1.977 4.091,2.209c0,0 -5.854,6.179 -7.543,7.993c-3.661,3.934 -1.457,9.179 2.432,7.261c8.957,-4.419 -4.443,21.259 -18.499,3.834Z" style="fill:#396b97;"/></g></g><path id="jewel" d="M165.625,48.8c5.517,0 9.996,4.479 9.996,9.995c0,5.517 -4.479,9.996 -9.996,9.996c-5.516,0 -9.995,-4.479 -9.995,-9.996c0,-5.516 4.479,-9.995 9.995,-9.995Zm0,6.9c1.709,0 3.096,1.387 3.096,3.095c0,1.709 -1.387,3.096 -3.096,3.096c-1.708,0 -3.095,-1.387 -3.095,-3.096c0,-1.708 1.387,-3.095 3.095,-3.095Z" style="fill:#da3848;"/></g></g><g id="goodwatchbadwatch"><text x="-0.99px" y="30.465px" style="font-family:'Merriweather-Bold', 'Merriweather';font-weight:700;font-size:30px;fill:#44a748;">good</text><text x="74.19px" y="30.465px" style="font-family:'Merriweather-Light', 'Merriweather';font-weight:300;font-size:30px;fill:#1e3760;">watch</text><text x="19.89px" y="58.465px" style="font-family:'Merriweather-Bold', 'Merriweather';font-weight:700;font-size:30px;fill:#da3848;">bad</text><text x="74.19px" y="58.465px" style="font-family:'Merriweather-Light', 'Merriweather';font-weight:300;font-size:30px;fill:#1e3760;">watch</text></g></g></g></svg>